  0
SECTION
  2
HEADER
  9
$ACADVER
  1
AC1014
  9
$ACADMAINTVER
 70
     9
  9
$DWGCODEPAGE
  3
UNDEFINED
  9
$INSBASE
 10
0.0
 20
0.0
 30
0.0
  9
$EXTMIN
 10
1.000000000000000E+20
 20
1.000000000000000E+20
 30
1.000000000000000E+20
  9
$EXTMAX
 10
-1.000000000000000E+20
 20
-1.000000000000000E+20
 30
-1.000000000000000E+20
  9
$LIMMIN
 10
0.0
 20
0.0
  9
$LIMMAX
 10
12.0
 20
9.0
  9
$ORTHOMODE
 70
     0
  9
$REGENMODE
 70
     1
  9
$FILLMODE
 70
     1
  9
$QTEXTMODE
 70
     0
  9
$MIRRTEXT
 70
     1
  9
$DRAGMODE
 70
     2
  9
$LTSCALE
 40
1.0
  9
$OSMODE
 70
    37
  9
$ATTMODE
 70
     1
  9
$TEXTSIZE
 40
0.2
  9
$TRACEWID
 40
0.05
  9
$TEXTSTYLE
  7
STANDARD
  9
$CLAYER
  8
0
  9
$CELTYPE
  6
BYLAYER
  9
$CECOLOR
 62
   256
  9
$CELTSCALE
 40
1.0
  9
$DELOBJ
 70
     1
  9
$DISPSILH
 70
     0
  9
$DIMSCALE
 40
1.0
  9
$DIMASZ
 40
0.18
  9
$DIMEXO
 40
0.0625
  9
$DIMDLI
 40
0.38
  9
$DIMRND
 40
0.0
  9
$DIMDLE
 40
0.0
  9
$DIMEXE
 40
0.18
  9
$DIMTP
 40
0.0
  9
$DIMTM
 40
0.0
  9
$DIMTXT
 40
0.18
  9
$DIMCEN
 40
0.09
  9
$DIMTSZ
 40
0.0
  9
$DIMTOL
 70
     0
  9
$DIMLIM
 70
     0
  9
$DIMTIH
 70
     1
  9
$DIMTOH
 70
     1
  9
$DIMSE1
 70
     0
  9
$DIMSE2
 70
     0
  9
$DIMTAD
 70
     0
  9
$DIMZIN
 70
     0
  9
$DIMBLK
  1

  9
$DIMASO
 70
     1
  9
$DIMSHO
 70
     1
  9
$DIMPOST
  1

  9
$DIMAPOST
  1

  9
$DIMALT
 70
     0
  9
$DIMALTD
 70
     2
  9
$DIMALTF
 40
25.4
  9
$DIMLFAC
 40
1.0
  9
$DIMTOFL
 70
     0
  9
$DIMTVP
 40
0.0
  9
$DIMTIX
 70
     0
  9
$DIMSOXD
 70
     0
  9
$DIMSAH
 70
     0
  9
$DIMBLK1
  1

  9
$DIMBLK2
  1

  9
$DIMSTYLE
  2
STANDARD
  9
$DIMCLRD
 70
     0
  9
$DIMCLRE
 70
     0
  9
$DIMCLRT
 70
     0
  9
$DIMTFAC
 40
1.0
  9
$DIMGAP
 40
0.09
  9
$DIMJUST
 70
     0
  9
$DIMSD1
 70
     0
  9
$DIMSD2
 70
     0
  9
$DIMTOLJ
 70
     1
  9
$DIMTZIN
 70
     0
  9
$DIMALTZ
 70
     0
  9
$DIMALTTZ
 70
     0
  9
$DIMFIT
 70
     3
  9
$DIMUPT
 70
     0
  9
$DIMUNIT
 70
     2
  9
$DIMDEC
 70
     4
  9
$DIMTDEC
 70
     4
  9
$DIMALTU
 70
     2
  9
$DIMALTTD
 70
     2
  9
$DIMTXSTY
  7
STANDARD
  9
$DIMAUNIT
 70
     0
  9
$LUNITS
 70
     2
  9
$LUPREC
 70
     4
  9
$SKETCHINC
 40
0.1
  9
$FILLETRAD
 40
0.5
  9
$AUNITS
 70
     0
  9
$AUPREC
 70
     0
  9
$MENU
  1
.
  9
$ELEVATION
 40
0.0
  9
$PELEVATION
 40
0.0
  9
$THICKNESS
 40
0.0
  9
$LIMCHECK
 70
     0
  9
$CHAMFERA
 40
0.5
  9
$CHAMFERB
 40
0.5
  9
$CHAMFERC
 40
1.0
  9
$CHAMFERD
 40
0.0
  9
$SKPOLY
 70
     0
  9
$TDCREATE
 40
2458523.482499988
  9
$TDUPDATE
 40
2458523.482499988
  9
$TDINDWG
 40
0.0000000116
  9
$TDUSRTIMER
 40
0.0000000116
  9
$USRTIMER
 70
     1
  9
$ANGBASE
 50
0.0
  9
$ANGDIR
 70
     0
  9
$PDMODE
 70
     0
  9
$PDSIZE
 40
0.0
  9
$PLINEWID
 40
0.0
  9
$COORDS
 70
     1
  9
$SPLFRAME
 70
     0
  9
$SPLINETYPE
 70
     6
  9
$SPLINESEGS
 70
     8
  9
$ATTDIA
 70
     0
  9
$ATTREQ
 70
     1
  9
$HANDLING
 70
     1
  9
$HANDSEED
  5
164
  9
$SURFTAB1
 70
     6
  9
$SURFTAB2
 70
     6
  9
$SURFTYPE
 70
     6
  9
$SURFU
 70
     6
  9
$SURFV
 70
     6
  9
$UCSNAME
  2

  9
$UCSORG
 10
0.0
 20
0.0
 30
0.0
  9
$UCSXDIR
 10
1.0
 20
0.0
 30
0.0
  9
$UCSYDIR
 10
0.0
 20
1.0
 30
0.0
  9
$PUCSNAME
  2

  9
$PUCSORG
 10
0.0
 20
0.0
 30
0.0
  9
$PUCSXDIR
 10
1.0
 20
0.0
 30
0.0
  9
$PUCSYDIR
 10
0.0
 20
1.0
 30
0.0
  9
$USERI1
 70
     0
  9
$USERI2
 70
     0
  9
$USERI3
 70
     0
  9
$USERI4
 70
     0
  9
$USERI5
 70
     0
  9
$USERR1
 40
0.0
  9
$USERR2
 40
0.0
  9
$USERR3
 40
0.0
  9
$USERR4
 40
0.0
  9
$USERR5
 40
0.0
  9
$WORLDVIEW
 70
     1
  9
$SHADEDGE
 70
     3
  9
$SHADEDIF
 70
    70
  9
$TILEMODE
 70
     1
  9
$MAXACTVP
 70
    64
  9
$PINSBASE
 10
0.0
 20
0.0
 30
0.0
  9
$PLIMCHECK
 70
     0
  9
$PEXTMIN
 10
1.000000000000000E+20
 20
1.000000000000000E+20
 30
1.000000000000000E+20
  9
$PEXTMAX
 10
-1.000000000000000E+20
 20
-1.000000000000000E+20
 30
-1.000000000000000E+20
  9
$PLIMMIN
 10
0.0
 20
0.0
  9
$PLIMMAX
 10
12.0
 20
9.0
  9
$UNITMODE
 70
     0
  9
$VISRETAIN
 70
     1
  9
$PLINEGEN
 70
     0
  9
$PSLTSCALE
 70
     1
  9
$TREEDEPTH
 70
  3020
  9
$PICKSTYLE
 70
     1
  9
$CMLSTYLE
  2
STANDARD
  9
$CMLJUST
 70
     0
  9
$CMLSCALE
 40
1.0
  9
$PROXYGRAPHICS
 70
     1
  9
$MEASUREMENT
 70
     0
  0
ENDSEC
  0
SECTION
  2
CLASSES
  0
CLASS
  1
ACDBDICTIONARYWDFLT
  2
AcDbDictionaryWithDefault
  3
ObjectDBX Classes
 90
        0
280
     0
281
     0
  0
CLASS
  1
VISUALSTYLE
  2
AcDbVisualStyle
  3
ObjectDBX Classes
 90
     4095
280
     0
281
     0
  0
CLASS
  1
MATERIAL
  2
AcDbMaterial
  3
ObjectDBX Classes
 90
     1153
280
     0
281
     0
  0
CLASS
  1
SUN
  2
AcDbSun
  3
SCENEOE
 90
     1024
280
     0
281
     0
  0
CLASS
  1
DICTIONARYVAR
  2
AcDbDictionaryVar
  3
ObjectDBX Classes
 90
        0
280
     0
281
     0
  0
CLASS
  1
XRECORD
  2
AcDbXrecord
  3
AutoCAD 2000
 90
        0
280
     0
281
     0
  0
CLASS
  1
LWPOLYLINE
  2
AcDbPolyline
  3
AutoCAD 2000
 90
        0
280
     0
281
     1
  0
CLASS
  1
HATCH
  2
AcDbHatch
  3
AutoCAD 2000
 90
        0
280
     0
281
     1
  0
CLASS
  1
ACDBPLACEHOLDER
  2
AcDbPlaceHolder
  3
ObjectDBX Classes
 90
        0
280
     0
281
     0
  0
CLASS
  1
LAYOUT
  2
AcDbLayout
  3
ObjectDBX Classes
 90
        0
280
     0
281
     0
  0
ENDSEC
  0
SECTION
  2
TABLES
  0
TABLE
  2
VPORT
  5
8
330
0
100
AcDbSymbolTable
 70
     1
  0
VPORT
  5
29
330
8
100
AcDbSymbolTableRecord
100
AcDbViewportTableRecord
  2
*ACTIVE
 70
     0
 10
0.0
 20
0.0
 11
1.0
 21
1.0
 12
0.0
 22
0.0
 13
0.0
 23
0.0
 14
0.5
 24
0.5
 15
0.5
 25
0.5
 16
0.0
 26
0.0
 36
1.0
 17
-0.0549999999865349
 27
0.3599999999098884
 37
0.0
 40
841.889763569055
 41
1.414141414141415
 42
50.0
 43
0.0
 44
0.0
 50
0.0
 51
0.0
 71
     0
 72
   100
 73
     1
 74
     3
 75
     0
 76
     0
 77
     0
 78
     0
  0
ENDTAB
  0
TABLE
  2
LTYPE
  5
5
330
0
100
AcDbSymbolTable
 70
     1
  0
LTYPE
  5
14
330
5
100
AcDbSymbolTableRecord
100
AcDbLinetypeTableRecord
  2
BYBLOCK
 70
     0
  3

 72
    65
 73
     0
 40
0.0
  0
LTYPE
  5
15
330
5
100
AcDbSymbolTableRecord
100
AcDbLinetypeTableRecord
  2
BYLAYER
 70
     0
  3

 72
    65
 73
     0
 40
0.0
  0
LTYPE
  5
16
330
5
100
AcDbSymbolTableRecord
100
AcDbLinetypeTableRecord
  2
CONTINUOUS
 70
     0
  3
Solid line
 72
    65
 73
     0
 40
0.0
  0
ENDTAB
  0
TABLE
  2
LAYER
  5
2
330
0
100
AcDbSymbolTable
 70
     4
  0
LAYER
  5
10
330
2
100
AcDbSymbolTableRecord
100
AcDbLayerTableRecord
  2
0
 70
     0
 62
     7
  6
CONTINUOUS
  0
LAYER
  5
40
330
2
100
AcDbSymbolTableRecord
100
AcDbLayerTableRecord
  2
TAGLI_INTERNI
 70
     4
 62
     7
  6
CONTINUOUS
  0
LAYER
  5
93
330
2
100
AcDbSymbolTableRecord
100
AcDbLayerTableRecord
  2
TAGLIO_ESTERNI
 70
     4
 62
     7
  6
CONTINUOUS
  0
LAYER
  5
A4
330
2
100
AcDbSymbolTableRecord
100
AcDbLayerTableRecord
  2
PIEGA_CONTINUA
 70
     0
 62
     7
  6
CONTINUOUS
  0
ENDTAB
  0
TABLE
  2
STYLE
  5
3
330
0
100
AcDbSymbolTable
 70
     1
  0
STYLE
  5
11
330
3
100
AcDbSymbolTableRecord
100
AcDbTextStyleTableRecord
  2
STANDARD
 70
     0
 40
0.0
 41
1.0
 50
0.0
 71
     0
 42
0.2
  3
txt
  4

  0
ENDTAB
  0
TABLE
  2
VIEW
  5
6
330
0
100
AcDbSymbolTable
 70
     0
  0
ENDTAB
  0
TABLE
  2
UCS
  5
7
330
0
100
AcDbSymbolTable
 70
     0
  0
ENDTAB
  0
TABLE
  2
APPID
  5
9
330
0
100
AcDbSymbolTable
 70
     1
  0
APPID
  5
12
330
9
100
AcDbSymbolTableRecord
100
AcDbRegAppTableRecord
  2
ACAD
 70
     0
  0
ENDTAB
  0
TABLE
  2
DIMSTYLE
  5
A
330
0
100
AcDbSymbolTable
 70
     1
  0
DIMSTYLE
105
27
330
A
100
AcDbSymbolTableRecord
100
AcDbDimStyleTableRecord
  2
STANDARD
 70
     0
  3

  4

  5

  6

  7

 40
1.0
 41
0.18
 42
0.0625
 43
0.38
 44
0.18
 45
0.0
 46
0.0
 47
0.0
 48
0.0
140
0.18
141
0.09
142
0.0
143
25.4
144
1.0
145
0.0
146
1.0
147
0.09
 71
     0
 72
     0
 73
     1
 74
     1
 75
     0
 76
     0
 77
     0
 78
     0
170
     0
171
     2
172
     0
173
     0
174
     0
175
     0
176
     0
177
     0
178
     0
270
     2
271
     4
272
     4
273
     2
274
     2
340
11
275
     0
280
     0
281
     0
282
     0
283
     1
284
     0
285
     0
286
     0
287
     3
288
     0
  0
ENDTAB
  0
TABLE
  2
BLOCK_RECORD
  5
1
330
0
100
AcDbSymbolTable
 70
     1
  0
BLOCK_RECORD
  5
1F
330
1
100
AcDbSymbolTableRecord
100
AcDbBlockTableRecord
  2
*MODEL_SPACE
  0
BLOCK_RECORD
  5
1B
330
1
100
AcDbSymbolTableRecord
100
AcDbBlockTableRecord
  2
*PAPER_SPACE
  0
ENDTAB
  0
ENDSEC
  0
SECTION
  2
BLOCKS
  0
BLOCK
  5
20
330
1F
100
AcDbEntity
  8
0
100
AcDbBlockBegin
  2
*MODEL_SPACE
 70
     0
 10
0.0
 20
0.0
 30
0.0
  3
*MODEL_SPACE
  1

  0
ENDBLK
  5
21
330
1F
100
AcDbEntity
  8
0
100
AcDbBlockEnd
  0
BLOCK
  5
1C
330
1B
100
AcDbEntity
 67
     1
  8
0
100
AcDbBlockBegin
  2
*PAPER_SPACE
 70
     0
 10
0.0
 20
0.0
 30
0.0
  3
*PAPER_SPACE
  1

  0
ENDBLK
  5
1D
330
1B
100
AcDbEntity
 67
     1
  8
0
100
AcDbBlockEnd
  0
ENDSEC
  0
SECTION
  2
ENTITIES
  0
SPLINE
  5
41
330
1F
100
AcDbEntity
  8
TAGLI_INTERNI
 62
     1
100
AcDbSpline
210
0.0
220
0.0
230
1.0
 70
    11
 71
     3
 72
    26
 73
    22
 74
     0
 42
0.0000000001
 43
0.0000000001
 12
1.0
 22
0.0
 32
0.0
 13
1.0
 23
0.0
 33
0.0
 40
0.0
 40
0.0
 40
0.0
 40
0.0
 40
1.0
 40
1.0
 40
1.0
 40
2.0
 40
2.0
 40
2.0
 40
3.0
 40
3.0
 40
3.0
 40
4.0
 40
4.0
 40
4.0
 40
5.0
 40
5.0
 40
5.0
 40
6.0
 40
6.0
 40
6.0
 40
7.0
 40
7.0
 40
7.0
 40
7.0
 10
-393.2804050045078
 20
158.5680999603584
 30
0.0
 10
-396.4114049246293
 20
158.5680999603584
 30
0.0
 10
-398.9496048598745
 20
161.1062999597229
 30
0.0
 10
-398.9496048598745
 20
164.2373999589406
 30
0.0
 10
-398.9496048598745
 20
167.3683999581573
 30
0.0
 10
-396.4114049246293
 20
169.9066999575229
 30
0.0
 10
-393.2804050045078
 20
169.9066999575229
 30
0.0
 10
-393.2804050045078
 20
172.7412999568143
 30
0.0
 10
-393.2804050045078
 20
175.5759999561051
 30
0.0
 10
-393.2804050045078
 20
178.4105999553966
 30
0.0
 10
-386.6662051732501
 20
178.4105999553966
 30
0.0
 10
-380.0520053419924
 20
178.4105999553966
 30
0.0
 10
-373.4378055107347
 20
178.4105999553966
 30
0.0
 10
-373.4378055107347
 20
168.9617999577587
 30
0.0
 10
-373.4378055107347
 20
159.5129999601208
 30
0.0
 10
-373.4378055107347
 20
150.0641999624828
 30
0.0
 10
-380.0520053419924
 20
150.0641999624828
 30
0.0
 10
-386.6662051732501
 20
150.0641999624828
 30
0.0
 10
-393.2804050045078
 20
150.0641999624828
 30
0.0
 10
-393.2804050045078
 20
152.8987999617743
 30
0.0
 10
-393.2804050045078
 20
155.7333999610658
 30
0.0
 10
-393.2804050045078
 20
158.5680999603584
 30
0.0
  0
POLYLINE
  5
42
330
1F
100
AcDbEntity
  8
TAGLI_INTERNI
 62
     1
100
AcDb2dPolyline
 66
     1
 10
0.0
 20
0.0
 30
0.0
  0
VERTEX
  5
43
330
42
100
AcDbEntity
  8
TAGLI_INTERNI
 62
     1
100
AcDbVertex
100
AcDb2dVertex
 10
-56.52451359586635
 20
150.0641999624828
 30
0.0
  0
VERTEX
  5
44
330
42
100
AcDbEntity
  8
TAGLI_INTERNI
 62
     1
100
AcDbVertex
100
AcDb2dVertex
 10
-56.52451359586635
 20
178.4105999553966
 30
0.0
  0
SEQEND
  5
45
330
42
100
AcDbEntity
  8
TAGLI_INTERNI
 62
     1
  0
POLYLINE
  5
46
330
1F
100
AcDbEntity
  8
TAGLI_INTERNI
 62
     1
100
AcDb2dPolyline
 66
     1
 10
0.0
 20
0.0
 30
0.0
  0
VERTEX
  5
47
330
46
100
AcDbEntity
  8
TAGLI_INTERNI
 62
     1
100
AcDbVertex
100
AcDb2dVertex
 10
-254.9496085336204
 20
312.6316999218415
 30
0.0
  0
VERTEX
  5
48
330
46
100
AcDbEntity
  8
TAGLI_INTERNI
 62
     1
100
AcDbVertex
100
AcDb2dVertex
 10
-254.9496085336204
 20
323.9696999190068
 30
0.0
  0
SEQEND
  5
49
330
46
100
AcDbEntity
  8
TAGLI_INTERNI
 62
     1
  0
POLYLINE
  5
4A
330
1F
100
AcDbEntity
  8
TAGLI_INTERNI
 62
     1
100
AcDb2dPolyline
 66
     1
 10
0.0
 20
0.0
 30
0.0
  0
VERTEX
  5
4B
330
4A
100
AcDbEntity
  8
TAGLI_INTERNI
 62
     1
100
AcDbVertex
100
AcDb2dVertex
 10
-317.3119069426256
 20
323.9696999190068
 30
0.0
  0
VERTEX
  5
4C
330
4A
100
AcDbEntity
  8
TAGLI_INTERNI
 62
     1
100
AcDbVertex
100
AcDb2dVertex
 10
-317.3119069426256
 20
224.3318999439167
 30
0.0
  0
SEQEND
  5
4D
330
4A
100
AcDbEntity
  8
TAGLI_INTERNI
 62
     1
  0
SPLINE
  5
4E
330
1F
100
AcDbEntity
  8
TAGLI_INTERNI
 62
     1
100
AcDbSpline
210
0.0
220
0.0
230
1.0
 70
    11
 71
     3
 72
    17
 73
    13
 74
     0
 42
0.0000000001
 43
0.0000000001
 12
1.0
 22
0.0
 32
0.0
 13
1.0
 23
0.0
 33
0.0
 40
0.0
 40
0.0
 40
0.0
 40
0.0
 40
1.0
 40
1.0
 40
1.0
 40
2.0
 40
2.0
 40
2.0
 40
3.0
 40
3.0
 40
3.0
 40
4.0
 40
4.0
 40
4.0
 40
4.0
 10
-304.8394072608256
 20
259.538199935115
 30
0.0
 10
-304.0566072807965
 20
259.538199935115
 30
0.0
 10
-303.4221072969839
 20
260.1726999349564
 30
0.0
 10
-303.4221072969839
 20
260.9554999347607
 30
0.0
 10
-303.4221072969839
 20
261.738299934565
 30
0.0
 10
-304.0566072807965
 20
262.3727999344064
 30
0.0
 10
-304.8394072608256
 20
262.3727999344064
 30
0.0
 10
-305.6222072408547
 20
262.3727999344064
 30
0.0
 10
-306.2567072246673
 20
261.738299934565
 30
0.0
 10
-306.2567072246673
 20
260.9554999347607
 30
0.0
 10
-306.2567072246673
 20
260.1726999349564
 30
0.0
 10
-305.6222072408547
 20
259.538199935115
 30
0.0
 10
-304.8394072608256
 20
259.538199935115
 30
0.0
  0
SPLINE
  5
4F
330
1F
100
AcDbEntity
  8
TAGLI_INTERNI
 62
     1
100
AcDbSpline
210
0.0
220
0.0
230
1.0
 70
    11
 71
     3
 72
    17
 73
    13
 74
     0
 42
0.0000000001
 43
0.0000000001
 12
1.0
 22
0.0
 32
0.0
 13
1.0
 23
0.0
 33
0.0
 40
0.0
 40
0.0
 40
0.0
 40
0.0
 40
1.0
 40
1.0
 40
1.0
 40
2.0
 40
2.0
 40
2.0
 40
3.0
 40
3.0
 40
3.0
 40
4.0
 40
4.0
 40
4.0
 40
4.0
 10
-304.8394072608256
 20
249.6168999375953
 30
0.0
 10
-304.0566072807965
 20
249.6168999375953
 30
0.0
 10
-303.4221072969839
 20
250.251499937437
 30
0.0
 10
-303.4221072969839
 20
251.0341999372411
 30
0.0
 10
-303.4221072969839
 20
251.8169999370453
 30
0.0
 10
-304.0566072807965
 20
252.451599936887
 30
0.0
 10
-304.8394072608256
 20
252.451599936887
 30
0.0
 10
-305.6222072408547
 20
252.451599936887
 30
0.0
 10
-306.2567072246673
 20
251.8169999370453
 30
0.0
 10
-306.2567072246673
 20
251.0341999372411
 30
0.0
 10
-306.2567072246673
 20
250.251499937437
 30
0.0
 10
-305.6222072408547
 20
249.6168999375953
 30
0.0
 10
-304.8394072608256
 20
249.6168999375953
 30
0.0
  0
SPLINE
  5
50
330
1F
100
AcDbEntity
  8
TAGLI_INTERNI
 62
     1
100
AcDbSpline
210
0.0
220
0.0
230
1.0
 70
    11
 71
     3
 72
    17
 73
    13
 74
     0
 42
0.0000000001
 43
0.0000000001
 12
1.0
 22
0.0
 32
0.0
 13
1.0
 23
0.0
 33
0.0
 40
0.0
 40
0.0
 40
0.0
 40
0.0
 40
1.0
 40
1.0
 40
1.0
 40
2.0
 40
2.0
 40
2.0
 40
3.0
 40
3.0
 40
3.0
 40
4.0
 40
4.0
 40
4.0
 40
4.0
 10
-304.8394072608256
 20
239.6956999400758
 30
0.0
 10
-304.0566072807965
 20
239.6956999400758
 30
0.0
 10
-303.4221072969839
 20
240.3301999399173
 30
0.0
 10
-303.4221072969839
 20
241.1129999397216
 30
0.0
 10
-303.4221072969839
 20
241.8956999395257
 30
0.0
 10
-304.0566072807965
 20
242.5302999393673
 30
0.0
 10
-304.8394072608256
 20
242.5302999393673
 30
0.0
 10
-305.6222072408547
 20
242.5302999393673
 30
0.0
 10
-306.2567072246673
 20
241.8956999395257
 30
0.0
 10
-306.2567072246673
 20
241.1129999397216
 30
0.0
 10
-306.2567072246673
 20
240.3301999399173
 30
0.0
 10
-305.6222072408547
 20
239.6956999400758
 30
0.0
 10
-304.8394072608256
 20
239.6956999400758
 30
0.0
  0
POLYLINE
  5
51
330
1F
100
AcDbEntity
  8
TAGLI_INTERNI
 62
     1
100
AcDb2dPolyline
 66
     1
 10
0.0
 20
0.0
 30
0.0
  0
VERTEX
  5
52
330
51
100
AcDbEntity
  8
TAGLI_INTERNI
 62
     1
100
AcDbVertex
100
AcDb2dVertex
 10
453.8061998865484
 20
-96.01789997599626
 30
0.0
  0
VERTEX
  5
53
330
51
100
AcDbEntity
  8
TAGLI_INTERNI
 62
     1
100
AcDbVertex
100
AcDb2dVertex
 10
453.8061998865484
 20
-73.34079998166474
 30
0.0
  0
SEQEND
  5
54
330
51
100
AcDbEntity
  8
TAGLI_INTERNI
 62
     1
  0
POLYLINE
  5
55
330
1F
100
AcDbEntity
  8
TAGLI_INTERNI
 62
     1
100
AcDb2dPolyline
 66
     1
 10
0.0
 20
0.0
 30
0.0
  0
VERTEX
  5
56
330
55
100
AcDbEntity
  8
TAGLI_INTERNI
 62
     1
100
AcDbVertex
100
AcDb2dVertex
 10
453.8061998865484
 20
-73.34079998166474
 30
0.0
  0
VERTEX
  5
57
330
55
100
AcDbEntity
  8
TAGLI_INTERNI
 62
     1
100
AcDbVertex
100
AcDb2dVertex
 10
445.3022998886747
 20
-73.34079998166474
 30
0.0
  0
SEQEND
  5
58
330
55
100
AcDbEntity
  8
TAGLI_INTERNI
 62
     1
  0
SPLINE
  5
59
330
1F
100
AcDbEntity
  8
TAGLI_INTERNI
 62
     1
100
AcDbSpline
210
0.0
220
0.0
230
1.0
 70
     8
 71
     3
 72
     8
 73
     4
 74
     0
 42
0.0000000001
 43
0.0000000001
 12
1.0
 22
0.0
 32
0.0
 13
1.0
 23
0.0
 33
0.0
 40
0.0
 40
0.0
 40
0.0
 40
0.0
 40
1.0
 40
1.0
 40
1.0
 40
1.0
 10
445.3022998886747
 20
-73.34079998166474
 30
0.0
 10
443.7366998890662
 20
-73.34079998166474
 30
0.0
 10
442.4675998893831
 20
-74.60989998134882
 30
0.0
 10
442.4675998893831
 20
-76.17539998095623
 30
0.0
  0
POLYLINE
  5
5A
330
1F
100
AcDbEntity
  8
TAGLI_INTERNI
 62
     1
100
AcDb2dPolyline
 66
     1
 10
0.0
 20
0.0
 30
0.0
  0
VERTEX
  5
5B
330
5A
100
AcDbEntity
  8
TAGLI_INTERNI
 62
     1
100
AcDbVertex
100
AcDb2dVertex
 10
-254.9496085336204
 20
312.6316999218415
 30
0.0
  0
VERTEX
  5
5C
330
5A
100
AcDbEntity
  8
TAGLI_INTERNI
 62
     1
100
AcDbVertex
100
AcDb2dVertex
 10
-254.9496085336204
 20
224.3318999439167
 30
0.0
  0
SEQEND
  5
5D
330
5A
100
AcDbEntity
  8
TAGLI_INTERNI
 62
     1
  0
SPLINE
  5
5E
330
1F
100
AcDbEntity
  8
TAGLI_INTERNI
 62
     1
100
AcDbSpline
210
0.0
220
0.0
230
1.0
 70
    11
 71
     3
 72
    17
 73
    13
 74
     0
 42
0.0000000001
 43
0.0000000001
 12
1.0
 22
0.0
 32
0.0
 13
1.0
 23
0.0
 33
0.0
 40
0.0
 40
0.0
 40
0.0
 40
0.0
 40
1.0
 40
1.0
 40
1.0
 40
2.0
 40
2.0
 40
2.0
 40
3.0
 40
3.0
 40
3.0
 40
4.0
 40
4.0
 40
4.0
 40
4.0
 10
-273.7717080534287
 20
227.4499999431368
 30
0.0
 10
-271.4234081133388
 20
227.4499999431368
 30
0.0
 10
-269.5197081619062
 20
229.3536999426608
 30
0.0
 10
-269.5197081619062
 20
231.7019999420743
 30
0.0
 10
-269.5197081619062
 20
234.0502999414869
 30
0.0
 10
-271.4234081133388
 20
235.9538999410115
 30
0.0
 10
-273.7717080534287
 20
235.9538999410115
 30
0.0
 10
-276.1200079935185
 20
235.9538999410115
 30
0.0
 10
-278.0237079449511
 20
234.0502999414869
 30
0.0
 10
-278.0237079449511
 20
231.7019999420743
 30
0.0
 10
-278.0237079449511
 20
229.3536999426608
 30
0.0
 10
-276.1200079935185
 20
227.4499999431368
 30
0.0
 10
-273.7717080534287
 20
227.4499999431368
 30
0.0
  0
SPLINE
  5
5F
330
1F
100
AcDbEntity
  8
TAGLI_INTERNI
 62
     1
100
AcDbSpline
210
0.0
220
0.0
230
1.0
 70
    11
 71
     3
 72
    17
 73
    13
 74
     0
 42
0.0000000001
 43
0.0000000001
 12
1.0
 22
0.0
 32
0.0
 13
1.0
 23
0.0
 33
0.0
 40
0.0
 40
0.0
 40
0.0
 40
0.0
 40
1.0
 40
1.0
 40
1.0
 40
2.0
 40
2.0
 40
2.0
 40
3.0
 40
3.0
 40
3.0
 40
4.0
 40
4.0
 40
4.0
 40
4.0
 10
-183.5166103560281
 20
154.316099961421
 30
0.0
 10
-184.2993103360597
 20
154.316099961421
 30
0.0
 10
-184.9339103198697
 20
154.9506999612617
 30
0.0
 10
-184.9339103198697
 20
155.7333999610658
 30
0.0
 10
-184.9339103198697
 20
156.516199960871
 30
0.0
 10
-184.2993103360597
 20
157.1507999607117
 30
0.0
 10
-183.5166103560281
 20
157.1507999607117
 30
0.0
 10
-182.7338103759989
 20
157.1507999607117
 30
0.0
 10
-182.0993103921864
 20
156.516199960871
 30
0.0
 10
-182.0993103921864
 20
155.7333999610658
 30
0.0
 10
-182.0993103921864
 20
154.9506999612617
 30
0.0
 10
-182.7338103759989
 20
154.316099961421
 30
0.0
 10
-183.5166103560281
 20
154.316099961421
 30
0.0
  0
SPLINE
  5
60
330
1F
100
AcDbEntity
  8
TAGLI_INTERNI
 62
     1
100
AcDbSpline
210
0.0
220
0.0
230
1.0
 70
    11
 71
     3
 72
    17
 73
    13
 74
     0
 42
0.0000000001
 43
0.0000000001
 12
1.0
 22
0.0
 32
0.0
 13
1.0
 23
0.0
 33
0.0
 40
0.0
 40
0.0
 40
0.0
 40
0.0
 40
1.0
 40
1.0
 40
1.0
 40
2.0
 40
2.0
 40
2.0
 40
3.0
 40
3.0
 40
3.0
 40
4.0
 40
4.0
 40
4.0
 40
4.0
 10
-183.5166103560281
 20
171.3239999571677
 30
0.0
 10
-184.2993103360597
 20
171.3239999571677
 30
0.0
 10
-184.9339103198697
 20
171.9585999570103
 30
0.0
 10
-184.9339103198697
 20
172.7412999568143
 30
0.0
 10
-184.9339103198697
 20
173.5240999566177
 30
0.0
 10
-184.2993103360597
 20
174.1585999564592
 30
0.0
 10
-183.5166103560281
 20
174.1585999564592
 30
0.0
 10
-182.7338103759989
 20
174.1585999564592
 30
0.0
 10
-182.0993103921864
 20
173.5240999566177
 30
0.0
 10
-182.0993103921864
 20
172.7412999568143
 30
0.0
 10
-182.0993103921864
 20
171.9585999570103
 30
0.0
 10
-182.7338103759989
 20
171.3239999571677
 30
0.0
 10
-183.5166103560281
 20
171.3239999571677
 30
0.0
  0
SPLINE
  5
61
330
1F
100
AcDbEntity
  8
TAGLI_INTERNI
 62
     1
100
AcDbSpline
210
0.0
220
0.0
230
1.0
 70
    11
 71
     3
 72
    17
 73
    13
 74
     0
 42
0.0000000001
 43
0.0000000001
 12
1.0
 22
0.0
 32
0.0
 13
1.0
 23
0.0
 33
0.0
 40
0.0
 40
0.0
 40
0.0
 40
0.0
 40
1.0
 40
1.0
 40
1.0
 40
2.0
 40
2.0
 40
2.0
 40
3.0
 40
3.0
 40
3.0
 40
4.0
 40
4.0
 40
4.0
 40
4.0
 10
-196.2725100305979
 20
171.3239999571677
 30
0.0
 10
-197.0552100106296
 20
171.3239999571677
 30
0.0
 10
-197.6898099944396
 20
171.9585999570103
 30
0.0
 10
-197.6898099944396
 20
172.7412999568143
 30
0.0
 10
-197.6898099944396
 20
173.5240999566177
 30
0.0
 10
-197.0552100106296
 20
174.1585999564592
 30
0.0
 10
-196.2725100305979
 20
174.1585999564592
 30
0.0
 10
-195.4897100505688
 20
174.1585999564592
 30
0.0
 10
-194.8552100667563
 20
173.5240999566177
 30
0.0
 10
-194.8552100667563
 20
172.7412999568143
 30
0.0
 10
-194.8552100667563
 20
171.9585999570103
 30
0.0
 10
-195.4897100505688
 20
171.3239999571677
 30
0.0
 10
-196.2725100305979
 20
171.3239999571677
 30
0.0
  0
SPLINE
  5
62
330
1F
100
AcDbEntity
  8
TAGLI_INTERNI
 62
     1
100
AcDbSpline
210
0.0
220
0.0
230
1.0
 70
    11
 71
     3
 72
    17
 73
    13
 74
     0
 42
0.0000000001
 43
0.0000000001
 12
1.0
 22
0.0
 32
0.0
 13
1.0
 23
0.0
 33
0.0
 40
0.0
 40
0.0
 40
0.0
 40
0.0
 40
1.0
 40
1.0
 40
1.0
 40
2.0
 40
2.0
 40
2.0
 40
3.0
 40
3.0
 40
3.0
 40
4.0
 40
4.0
 40
4.0
 40
4.0
 10
-196.2725100305979
 20
154.316099961421
 30
0.0
 10
-197.0552100106296
 20
154.316099961421
 30
0.0
 10
-197.6898099944396
 20
154.9506999612617
 30
0.0
 10
-197.6898099944396
 20
155.7333999610658
 30
0.0
 10
-197.6898099944396
 20
156.516199960871
 30
0.0
 10
-197.0552100106296
 20
157.1507999607117
 30
0.0
 10
-196.2725100305979
 20
157.1507999607117
 30
0.0
 10
-195.4897100505688
 20
157.1507999607117
 30
0.0
 10
-194.8552100667563
 20
156.516199960871
 30
0.0
 10
-194.8552100667563
 20
155.7333999610658
 30
0.0
 10
-194.8552100667563
 20
154.9506999612617
 30
0.0
 10
-195.4897100505688
 20
154.316099961421
 30
0.0
 10
-196.2725100305979
 20
154.316099961421
 30
0.0
  0
POLYLINE
  5
63
330
1F
100
AcDbEntity
  8
TAGLI_INTERNI
 62
     1
100
AcDb2dPolyline
 66
     1
 10
0.0
 20
0.0
 30
0.0
  0
VERTEX
  5
64
330
63
100
AcDbEntity
  8
TAGLI_INTERNI
 62
     1
100
AcDbVertex
100
AcDb2dVertex
 10
-127.9575117734587
 20
135.8908999660276
 30
0.0
  0
VERTEX
  5
65
330
63
100
AcDbEntity
  8
TAGLI_INTERNI
 62
     1
100
AcDbVertex
100
AcDb2dVertex
 10
-169.9103107031537
 20
135.8908999660276
 30
0.0
  0
VERTEX
  5
66
330
63
100
AcDbEntity
  8
TAGLI_INTERNI
 62
     1
100
AcDbVertex
100
AcDb2dVertex
 10
-172.744910630837
 20
135.8908999660276
 30
0.0
  0
VERTEX
  5
67
330
63
100
AcDbEntity
  8
TAGLI_INTERNI
 62
     1
100
AcDbVertex
100
AcDb2dVertex
 10
-207.3276097485588
 20
135.8908999660276
 30
0.0
  0
SEQEND
  5
68
330
63
100
AcDbEntity
  8
TAGLI_INTERNI
 62
     1
  0
POLYLINE
  5
69
330
1F
100
AcDbEntity
  8
TAGLI_INTERNI
 62
     1
100
AcDb2dPolyline
 66
     1
 10
0.0
 20
0.0
 30
0.0
  0
VERTEX
  5
6A
330
69
100
AcDbEntity
  8
TAGLI_INTERNI
 62
     1
100
AcDbVertex
100
AcDb2dVertex
 10
-127.9575117734587
 20
192.5837999518544
 30
0.0
  0
VERTEX
  5
6B
330
69
100
AcDbEntity
  8
TAGLI_INTERNI
 62
     1
100
AcDbVertex
100
AcDb2dVertex
 10
-207.3276097485588
 20
192.5837999518544
 30
0.0
  0
SEQEND
  5
6C
330
69
100
AcDbEntity
  8
TAGLI_INTERNI
 62
     1
  0
POLYLINE
  5
6D
330
1F
100
AcDbEntity
  8
TAGLI_INTERNI
 62
     1
100
AcDb2dPolyline
 66
     1
 10
0.0
 20
0.0
 30
0.0
  0
VERTEX
  5
6E
330
6D
100
AcDbEntity
  8
TAGLI_INTERNI
 62
     1
100
AcDbVertex
100
AcDb2dVertex
 10
-421.6268042813309
 20
192.5837999518544
 30
0.0
  0
VERTEX
  5
6F
330
6D
100
AcDbEntity
  8
TAGLI_INTERNI
 62
     1
100
AcDbVertex
100
AcDb2dVertex
 10
-342.2567063062308
 20
192.5837999518544
 30
0.0
  0
SEQEND
  5
70
330
6D
100
AcDbEntity
  8
TAGLI_INTERNI
 62
     1
  0
POLYLINE
  5
71
330
1F
100
AcDbEntity
  8
TAGLI_INTERNI
 62
     1
100
AcDb2dPolyline
 66
     1
 10
0.0
 20
0.0
 30
0.0
  0
VERTEX
  5
72
330
71
100
AcDbEntity
  8
TAGLI_INTERNI
 62
     1
100
AcDbVertex
100
AcDb2dVertex
 10
-421.6268042813309
 20
135.8908999660276
 30
0.0
  0
VERTEX
  5
73
330
71
100
AcDbEntity
  8
TAGLI_INTERNI
 62
     1
100
AcDbVertex
100
AcDb2dVertex
 10
-379.6741053516334
 20
135.8908999660276
 30
0.0
  0
VERTEX
  5
74
330
71
100
AcDbEntity
  8
TAGLI_INTERNI
 62
     1
100
AcDbVertex
100
AcDb2dVertex
 10
-376.8394054239527
 20
135.8908999660276
 30
0.0
  0
VERTEX
  5
75
330
71
100
AcDbEntity
  8
TAGLI_INTERNI
 62
     1
100
AcDbVertex
100
AcDb2dVertex
 10
-342.2567063062308
 20
135.8908999660276
 30
0.0
  0
SEQEND
  5
76
330
71
100
AcDbEntity
  8
TAGLI_INTERNI
 62
     1
  0
SPLINE
  5
77
330
1F
100
AcDbEntity
  8
TAGLI_INTERNI
 62
     1
100
AcDbSpline
210
0.0
220
0.0
230
1.0
 70
    11
 71
     3
 72
    17
 73
    13
 74
     0
 42
0.0000000001
 43
0.0000000001
 12
1.0
 22
0.0
 32
0.0
 13
1.0
 23
0.0
 33
0.0
 40
0.0
 40
0.0
 40
0.0
 40
0.0
 40
1.0
 40
1.0
 40
1.0
 40
2.0
 40
2.0
 40
2.0
 40
3.0
 40
3.0
 40
3.0
 40
4.0
 40
4.0
 40
4.0
 40
4.0
 10
-353.3119060241892
 20
154.316099961421
 30
0.0
 10
-352.52910604416
 20
154.316099961421
 30
0.0
 10
-351.89450606035
 20
154.9506999612617
 30
0.0
 10
-351.89450606035
 20
155.7333999610658
 30
0.0
 10
-351.89450606035
 20
156.516199960871
 30
0.0
 10
-352.52910604416
 20
157.1507999607117
 30
0.0
 10
-353.3119060241892
 20
157.1507999607117
 30
0.0
 10
-354.0946060042208
 20
157.1507999607117
 30
0.0
 10
-354.7292059880308
 20
156.516199960871
 30
0.0
 10
-354.7292059880308
 20
155.7333999610658
 30
0.0
 10
-354.7292059880308
 20
154.9506999612617
 30
0.0
 10
-354.0946060042208
 20
154.316099961421
 30
0.0
 10
-353.3119060241892
 20
154.316099961421
 30
0.0
  0
SPLINE
  5
78
330
1F
100
AcDbEntity
  8
TAGLI_INTERNI
 62
     1
100
AcDbSpline
210
0.0
220
0.0
230
1.0
 70
    11
 71
     3
 72
    17
 73
    13
 74
     0
 42
0.0000000001
 43
0.0000000001
 12
1.0
 22
0.0
 32
0.0
 13
1.0
 23
0.0
 33
0.0
 40
0.0
 40
0.0
 40
0.0
 40
0.0
 40
1.0
 40
1.0
 40
1.0
 40
2.0
 40
2.0
 40
2.0
 40
3.0
 40
3.0
 40
3.0
 40
4.0
 40
4.0
 40
4.0
 40
4.0
 10
-353.3119060241892
 20
171.3239999571677
 30
0.0
 10
-352.52910604416
 20
171.3239999571677
 30
0.0
 10
-351.89450606035
 20
171.9585999570103
 30
0.0
 10
-351.89450606035
 20
172.7412999568143
 30
0.0
 10
-351.89450606035
 20
173.5240999566177
 30
0.0
 10
-352.52910604416
 20
174.1585999564592
 30
0.0
 10
-353.3119060241892
 20
174.1585999564592
 30
0.0
 10
-354.0946060042208
 20
174.1585999564592
 30
0.0
 10
-354.7292059880308
 20
173.5240999566177
 30
0.0
 10
-354.7292059880308
 20
172.7412999568143
 30
0.0
 10
-354.7292059880308
 20
171.9585999570103
 30
0.0
 10
-354.0946060042208
 20
171.3239999571677
 30
0.0
 10
-353.3119060241892
 20
171.3239999571677
 30
0.0
  0
SPLINE
  5
79
330
1F
100
AcDbEntity
  8
TAGLI_INTERNI
 62
     1
100
AcDbSpline
210
0.0
220
0.0
230
1.0
 70
    11
 71
     3
 72
    17
 73
    13
 74
     0
 42
0.0000000001
 43
0.0000000001
 12
1.0
 22
0.0
 32
0.0
 13
1.0
 23
0.0
 33
0.0
 40
0.0
 40
0.0
 40
0.0
 40
0.0
 40
1.0
 40
1.0
 40
1.0
 40
2.0
 40
2.0
 40
2.0
 40
3.0
 40
3.0
 40
3.0
 40
4.0
 40
4.0
 40
4.0
 40
4.0
 10
-366.0678056987591
 20
171.3239999571677
 30
0.0
 10
-365.2850057187299
 20
171.3239999571677
 30
0.0
 10
-364.6504057349199
 20
171.9585999570103
 30
0.0
 10
-364.6504057349199
 20
172.7412999568143
 30
0.0
 10
-364.6504057349199
 20
173.5240999566177
 30
0.0
 10
-365.2850057187299
 20
174.1585999564592
 30
0.0
 10
-366.0678056987591
 20
174.1585999564592
 30
0.0
 10
-366.8505056787907
 20
174.1585999564592
 30
0.0
 10
-367.4851056626007
 20
173.5240999566177
 30
0.0
 10
-367.4851056626007
 20
172.7412999568143
 30
0.0
 10
-367.4851056626007
 20
171.9585999570103
 30
0.0
 10
-366.8505056787907
 20
171.3239999571677
 30
0.0
 10
-366.0678056987591
 20
171.3239999571677
 30
0.0
  0
SPLINE
  5
7A
330
1F
100
AcDbEntity
  8
TAGLI_INTERNI
 62
     1
100
AcDbSpline
210
0.0
220
0.0
230
1.0
 70
    11
 71
     3
 72
    17
 73
    13
 74
     0
 42
0.0000000001
 43
0.0000000001
 12
1.0
 22
0.0
 32
0.0
 13
1.0
 23
0.0
 33
0.0
 40
0.0
 40
0.0
 40
0.0
 40
0.0
 40
1.0
 40
1.0
 40
1.0
 40
2.0
 40
2.0
 40
2.0
 40
3.0
 40
3.0
 40
3.0
 40
4.0
 40
4.0
 40
4.0
 40
4.0
 10
-366.0678056987591
 20
154.316099961421
 30
0.0
 10
-365.2850057187299
 20
154.316099961421
 30
0.0
 10
-364.6504057349199
 20
154.9506999612617
 30
0.0
 10
-364.6504057349199
 20
155.7333999610658
 30
0.0
 10
-364.6504057349199
 20
156.516199960871
 30
0.0
 10
-365.2850057187299
 20
157.1507999607117
 30
0.0
 10
-366.0678056987591
 20
157.1507999607117
 30
0.0
 10
-366.8505056787907
 20
157.1507999607117
 30
0.0
 10
-367.4851056626007
 20
156.516199960871
 30
0.0
 10
-367.4851056626007
 20
155.7333999610658
 30
0.0
 10
-367.4851056626007
 20
154.9506999612617
 30
0.0
 10
-366.8505056787907
 20
154.316099961421
 30
0.0
 10
-366.0678056987591
 20
154.316099961421
 30
0.0
  0
SPLINE
  5
7B
330
1F
100
AcDbEntity
  8
TAGLI_INTERNI
 62
     1
100
AcDbSpline
210
0.0
220
0.0
230
1.0
 70
    11
 71
     3
 72
    17
 73
    13
 74
     0
 42
0.0000000001
 43
0.0000000001
 12
1.0
 22
0.0
 32
0.0
 13
1.0
 23
0.0
 33
0.0
 40
0.0
 40
0.0
 40
0.0
 40
0.0
 40
1.0
 40
1.0
 40
1.0
 40
2.0
 40
2.0
 40
2.0
 40
3.0
 40
3.0
 40
3.0
 40
4.0
 40
4.0
 40
4.0
 40
4.0
 10
156.1683809778858
 20
-13.81319999654721
 30
0.0
 10
117.030081976387
 20
-13.81319999654721
 30
0.0
 10
85.30228278583061
 20
-45.54109998861509
 30
0.0
 10
85.30228278583061
 20
-84.67939997883104
 30
0.0
 10
85.30228278583061
 20
-123.8175999690459
 30
0.0
 10
117.030081976387
 20
-155.5454999611138
 30
0.0
 10
156.1683809778858
 20
-155.5454999611138
 30
0.0
 10
195.3066799793846
 20
-155.5454999611138
 30
0.0
 10
227.0345791699385
 20
-123.8175999690459
 30
0.0
 10
227.0345791699385
 20
-84.67939997883104
 30
0.0
 10
227.0345791699385
 20
-45.54109998861509
 30
0.0
 10
195.3066799793846
 20
-13.81319999654721
 30
0.0
 10
156.1683809778858
 20
-13.81319999654721
 30
0.0
  0
SPLINE
  5
7C
330
1F
100
AcDbEntity
  8
TAGLI_INTERNI
 62
     1
100
AcDbSpline
210
0.0
220
0.0
230
1.0
 70
    11
 71
     3
 72
    17
 73
    13
 74
     0
 42
0.0000000001
 43
0.0000000001
 12
1.0
 22
0.0
 32
0.0
 13
1.0
 23
0.0
 33
0.0
 40
0.0
 40
0.0
 40
0.0
 40
0.0
 40
1.0
 40
1.0
 40
1.0
 40
2.0
 40
2.0
 40
2.0
 40
3.0
 40
3.0
 40
3.0
 40
4.0
 40
4.0
 40
4.0
 40
4.0
 10
354.5935759156374
 20
-274.6005999313496
 30
0.0
 10
349.8969760354576
 20
-274.6005999313496
 30
0.0
 10
346.0896761325899
 20
-278.4079999303993
 30
0.0
 10
346.0896761325899
 20
-283.1044999292251
 30
0.0
 10
346.0896761325899
 20
-287.8010999280503
 30
0.0
 10
349.8969760354576
 20
-291.6084999270981
 30
0.0
 10
354.5935759156374
 20
-291.6084999270981
 30
0.0
 10
359.2901757958171
 20
-291.6084999270981
 30
0.0
 10
363.0975756986822
 20
-287.8010999280503
 30
0.0
 10
363.0975756986822
 20
-283.1044999292251
 30
0.0
 10
363.0975756986822
 20
-278.4079999303993
 30
0.0
 10
359.2901757958171
 20
-274.6005999313496
 30
0.0
 10
354.5935759156374
 20
-274.6005999313496
 30
0.0
  0
SPLINE
  5
7D
330
1F
100
AcDbEntity
  8
TAGLI_INTERNI
 62
     1
100
AcDbSpline
210
0.0
220
0.0
230
1.0
 70
    11
 71
     3
 72
    17
 73
    13
 74
     0
 42
0.0000000001
 43
0.0000000001
 12
1.0
 22
0.0
 32
0.0
 13
1.0
 23
0.0
 33
0.0
 40
0.0
 40
0.0
 40
0.0
 40
0.0
 40
1.0
 40
1.0
 40
1.0
 40
2.0
 40
2.0
 40
2.0
 40
3.0
 40
3.0
 40
3.0
 40
4.0
 40
4.0
 40
4.0
 40
4.0
 10
-274.7922080273935
 20
150.0641999624828
 30
0.0
 10
-266.9645082270948
 20
150.0641999624828
 30
0.0
 10
-260.6189083889846
 20
156.4096999608977
 30
0.0
 10
-260.6189083889846
 20
164.2373999589406
 30
0.0
 10
-260.6189083889846
 20
172.0649999569843
 30
0.0
 10
-266.9645082270948
 20
178.4105999553966
 30
0.0
 10
-274.7922080273935
 20
178.4105999553966
 30
0.0
 10
-282.6198078276948
 20
178.4105999553966
 30
0.0
 10
-288.9654076658051
 20
172.0649999569843
 30
0.0
 10
-288.9654076658051
 20
164.2373999589406
 30
0.0
 10
-288.9654076658051
 20
156.4096999608977
 30
0.0
 10
-282.6198078276948
 20
150.0641999624828
 30
0.0
 10
-274.7922080273935
 20
150.0641999624828
 30
0.0
  0
POLYLINE
  5
7E
330
1F
100
AcDbEntity
  8
TAGLI_INTERNI
 62
     1
100
AcDb2dPolyline
 66
     1
 10
0.0
 20
0.0
 30
0.0
  0
VERTEX
  5
7F
330
7E
100
AcDbEntity
  8
TAGLI_INTERNI
 62
     1
100
AcDbVertex
100
AcDb2dVertex
 10
-257.7843084613012
 20
28.17439999295628
 30
0.0
  0
VERTEX
  5
80
330
7E
100
AcDbEntity
  8
TAGLI_INTERNI
 62
     1
100
AcDbVertex
100
AcDb2dVertex
 10
-257.7843084613012
 20
138.5837999653544
 30
0.0
  0
SEQEND
  5
81
330
7E
100
AcDbEntity
  8
TAGLI_INTERNI
 62
     1
  0
POLYLINE
  5
82
330
1F
100
AcDbEntity
  8
TAGLI_INTERNI
 62
     1
100
AcDb2dPolyline
 66
     1
 10
0.0
 20
0.0
 30
0.0
  0
VERTEX
  5
83
330
82
100
AcDbEntity
  8
TAGLI_INTERNI
 62
     1
100
AcDbVertex
100
AcDb2dVertex
 10
-322.9811067979923
 20
28.17439999295628
 30
0.0
  0
VERTEX
  5
84
330
82
100
AcDbEntity
  8
TAGLI_INTERNI
 62
     1
100
AcDbVertex
100
AcDb2dVertex
 10
-322.9811067979923
 20
138.5837999653544
 30
0.0
  0
SEQEND
  5
85
330
82
100
AcDbEntity
  8
TAGLI_INTERNI
 62
     1
  0
SPLINE
  5
86
330
1F
100
AcDbEntity
  8
TAGLI_INTERNI
 62
     1
100
AcDbSpline
210
0.0
220
0.0
230
1.0
 70
    11
 71
     3
 72
    17
 73
    13
 74
     0
 42
0.0000000001
 43
0.0000000001
 12
1.0
 22
0.0
 32
0.0
 13
1.0
 23
0.0
 33
0.0
 40
0.0
 40
0.0
 40
0.0
 40
0.0
 40
1.0
 40
1.0
 40
1.0
 40
2.0
 40
2.0
 40
2.0
 40
3.0
 40
3.0
 40
3.0
 40
4.0
 40
4.0
 40
4.0
 40
4.0
 10
354.5935759156374
 20
122.2497999694371
 30
0.0
 10
349.8969760354576
 20
122.2497999694371
 30
0.0
 10
346.0896761325899
 20
118.4423999703893
 30
0.0
 10
346.0896761325899
 20
113.7457999715623
 30
0.0
 10
346.0896761325899
 20
109.0492999727364
 30
0.0
 10
349.8969760354576
 20
105.2418999736886
 30
0.0
 10
354.5935759156374
 20
105.2418999736886
 30
0.0
 10
359.2901757958171
 20
105.2418999736886
 30
0.0
 10
363.0975756986822
 20
109.0492999727364
 30
0.0
 10
363.0975756986822
 20
113.7457999715623
 30
0.0
 10
363.0975756986822
 20
118.4423999703893
 30
0.0
 10
359.2901757958171
 20
122.2497999694371
 30
0.0
 10
354.5935759156374
 20
122.2497999694371
 30
0.0
  0
SPLINE
  5
87
330
1F
100
AcDbEntity
  8
TAGLI_INTERNI
 62
     1
100
AcDbSpline
210
0.0
220
0.0
230
1.0
 70
     8
 71
     3
 72
    20
 73
    16
 74
     0
 42
0.0000000001
 43
0.0000000001
 12
1.0
 22
0.0
 32
0.0
 13
1.0
 23
0.0
 33
0.0
 40
0.0
 40
0.0
 40
0.0
 40
0.0
 40
1.0
 40
1.0
 40
1.0
 40
2.0
 40
2.0
 40
2.0
 40
3.0
 40
3.0
 40
3.0
 40
4.0
 40
4.0
 40
4.0
 40
5.0
 40
5.0
 40
5.0
 40
5.0
 10
-56.52451359586635
 20
150.0641999624828
 30
0.0
 10
-59.35911352354969
 20
150.0641999624828
 30
0.0
 10
-62.19371345123302
 20
150.0641999624828
 30
0.0
 10
-65.0284133789138
 20
150.0641999624828
 30
0.0
 10
-68.15951329903278
 20
150.0641999624828
 30
0.0
 10
-70.69771323427791
 20
152.6023999618492
 30
0.0
 10
-70.69771323427791
 20
155.7333999610658
 30
0.0
 10
-70.69771323427791
 20
161.4026999596481
 30
0.0
 10
-70.69771323427791
 20
167.0719999582321
 30
0.0
 10
-70.69771323427791
 20
172.7412999568143
 30
0.0
 10
-70.69771323427791
 20
175.8723999560321
 30
0.0
 10
-68.15951329903278
 20
178.4105999553966
 30
0.0
 10
-65.0284133789138
 20
178.4105999553966
 30
0.0
 10
-62.19371345123302
 20
178.4105999553966
 30
0.0
 10
-59.35911352354969
 20
178.4105999553966
 30
0.0
 10
-56.52451359586635
 20
178.4105999553966
 30
0.0
  0
POLYLINE
  5
88
330
1F
100
AcDbEntity
  8
TAGLI_INTERNI
 62
     1
100
AcDb2dPolyline
 66
     1
 10
0.0
 20
0.0
 30
0.0
  0
VERTEX
  5
89
330
88
100
AcDbEntity
  8
TAGLI_INTERNI
 62
     1
100
AcDbVertex
100
AcDb2dVertex
 10
442.4675998893831
 20
-76.17539998095623
 30
0.0
  0
VERTEX
  5
8A
330
88
100
AcDbEntity
  8
TAGLI_INTERNI
 62
     1
100
AcDbVertex
100
AcDb2dVertex
 10
442.4675998893831
 20
-93.18329997670477
 30
0.0
  0
SEQEND
  5
8B
330
88
100
AcDbEntity
  8
TAGLI_INTERNI
 62
     1
  0
SPLINE
  5
8C
330
1F
100
AcDbEntity
  8
TAGLI_INTERNI
 62
     1
100
AcDbSpline
210
0.0
220
0.0
230
1.0
 70
     8
 71
     3
 72
     8
 73
     4
 74
     0
 42
0.0000000001
 43
0.0000000001
 12
1.0
 22
0.0
 32
0.0
 13
1.0
 23
0.0
 33
0.0
 40
0.0
 40
0.0
 40
0.0
 40
0.0
 40
1.0
 40
1.0
 40
1.0
 40
1.0
 10
442.4675998893831
 20
-93.18329997670477
 30
0.0
 10
442.4675998893831
 20
-94.748799976314
 30
0.0
 10
443.7366998890662
 20
-96.01789997599626
 30
0.0
 10
445.3022998886747
 20
-96.01789997599626
 30
0.0
  0
POLYLINE
  5
8D
330
1F
100
AcDbEntity
  8
TAGLI_INTERNI
 62
     1
100
AcDb2dPolyline
 66
     1
 10
0.0
 20
0.0
 30
0.0
  0
VERTEX
  5
8E
330
8D
100
AcDbEntity
  8
TAGLI_INTERNI
 62
     1
100
AcDbVertex
100
AcDb2dVertex
 10
445.3022998886747
 20
-96.01789997599626
 30
0.0
  0
VERTEX
  5
8F
330
8D
100
AcDbEntity
  8
TAGLI_INTERNI
 62
     1
100
AcDbVertex
100
AcDb2dVertex
 10
453.8061998865484
 20
-96.01789997599626
 30
0.0
  0
SEQEND
  5
90
330
8D
100
AcDbEntity
  8
TAGLI_INTERNI
 62
     1
  0
SPLINE
  5
91
330
1F
100
AcDbEntity
  8
TAGLI_INTERNI
 62
     1
100
AcDbSpline
210
0.0
220
0.0
230
1.0
 70
    11
 71
     3
 72
    32
 73
    28
 74
     0
 42
0.0000000001
 43
0.0000000001
 12
1.0
 22
0.0
 32
0.0
 13
1.0
 23
0.0
 33
0.0
 40
0.0
 40
0.0
 40
0.0
 40
0.0
 40
1.0
 40
1.0
 40
1.0
 40
2.0
 40
2.0
 40
2.0
 40
3.0
 40
3.0
 40
3.0
 40
4.0
 40
4.0
 40
4.0
 40
5.0
 40
5.0
 40
5.0
 40
6.0
 40
6.0
 40
6.0
 40
7.0
 40
7.0
 40
7.0
 40
8.0
 40
8.0
 40
8.0
 40
9.0
 40
9.0
 40
9.0
 40
9.0
 10
-291.8000075934884
 20
287.6861999280781
 30
0.0
 10
-294.6347075211692
 20
287.6861999280781
 30
0.0
 10
-297.4693074488525
 20
287.6861999280781
 30
0.0
 10
-300.3040073765333
 20
287.6861999280781
 30
0.0
 10
-300.3040073765333
 20
281.0719999297316
 30
0.0
 10
-300.3040073765333
 20
274.4578999313854
 30
0.0
 10
-300.3040073765333
 20
267.843699933039
 30
0.0
 10
-292.4132075778444
 20
267.843699933039
 30
0.0
 10
-284.5224077791555
 20
267.843699933039
 30
0.0
 10
-276.6316079804665
 20
267.843699933039
 30
0.0
 10
-279.7427079010957
 20
265.0158999337459
 30
0.0
 10
-277.3007079633963
 20
259.8701999350323
 30
0.0
 10
-273.1428080694732
 20
260.4919999348767
 30
0.0
 10
-268.9848081755526
 20
261.1138999347214
 30
0.0
 10
-268.1552081967175
 20
266.7489999333121
 30
0.0
 10
-271.9575080997128
 20
268.5426999328639
 30
0.0
 10
-271.9575080997128
 20
274.9238999312684
 30
0.0
 10
-271.9575080997128
 20
281.3050999296738
 30
0.0
 10
-271.9575080997128
 20
287.6861999280781
 30
0.0
 10
-274.7922080273935
 20
287.6861999280781
 30
0.0
 10
-277.6268079550769
 20
287.6861999280781
 30
0.0
 10
-280.4615078827576
 20
287.6861999280781
 30
0.0
 10
-280.4615078827576
 20
290.8172999272949
 30
0.0
 10
-282.9997078180028
 20
293.3554999266603
 30
0.0
 10
-286.1307077381243
 20
293.3554999266603
 30
0.0
 10
-289.2618076582433
 20
293.3554999266603
 30
0.0
 10
-291.8000075934884
 20
290.8172999272949
 30
0.0
 10
-291.8000075934884
 20
287.6861999280781
 30
0.0
  0
SPLINE
  5
92
330
1F
100
AcDbEntity
  8
TAGLI_INTERNI
 62
     1
100
AcDbSpline
210
0.0
220
0.0
230
1.0
 70
    11
 71
     3
 72
    26
 73
    22
 74
     0
 42
0.0000000001
 43
0.0000000001
 12
1.0
 22
0.0
 32
0.0
 13
1.0
 23
0.0
 33
0.0
 40
0.0
 40
0.0
 40
0.0
 40
0.0
 40
1.0
 40
1.0
 40
1.0
 40
2.0
 40
2.0
 40
2.0
 40
3.0
 40
3.0
 40
3.0
 40
4.0
 40
4.0
 40
4.0
 40
5.0
 40
5.0
 40
5.0
 40
6.0
 40
6.0
 40
6.0
 40
7.0
 40
7.0
 40
7.0
 40
7.0
 10
-156.3040110502793
 20
169.9066999575229
 30
0.0
 10
-156.3040110502793
 20
172.7412999568143
 30
0.0
 10
-156.3040110502793
 20
175.5759999561051
 30
0.0
 10
-156.3040110502793
 20
178.4105999553966
 30
0.0
 10
-162.918210881537
 20
178.4105999553966
 30
0.0
 10
-169.5323107127973
 20
178.4105999553966
 30
0.0
 10
-176.146510544055
 20
178.4105999553966
 30
0.0
 10
-176.146510544055
 20
168.9617999577587
 30
0.0
 10
-176.146510544055
 20
159.5129999601208
 30
0.0
 10
-176.146510544055
 20
150.0641999624828
 30
0.0
 10
-169.5323107127973
 20
150.0641999624828
 30
0.0
 10
-162.918210881537
 20
150.0641999624828
 30
0.0
 10
-156.3040110502793
 20
150.0641999624828
 30
0.0
 10
-156.3040110502793
 20
152.8987999617743
 30
0.0
 10
-156.3040110502793
 20
155.7333999610658
 30
0.0
 10
-156.3040110502793
 20
158.5680999603584
 30
0.0
 10
-153.1729111301603
 20
158.5680999603584
 30
0.0
 10
-150.6347111949152
 20
161.1062999597229
 30
0.0
 10
-150.6347111949152
 20
164.2373999589406
 30
0.0
 10
-150.6347111949152
 20
167.3683999581573
 30
0.0
 10
-153.1729111301603
 20
169.9066999575229
 30
0.0
 10
-156.3040110502793
 20
169.9066999575229
 30
0.0
  0
SPLINE
  5
94
330
1F
100
AcDbEntity
  8
TAGLIO_ESTERNI
 62
     1
100
AcDbSpline
210
0.0
220
0.0
230
1.0
 70
     8
 71
     3
 72
   149
 73
   145
 74
     0
 42
0.0000000001
 43
0.0000000001
 12
1.0
 22
0.0
 32
0.0
 13
1.0
 23
0.0
 33
0.0
 40
0.0
 40
0.0
 40
0.0
 40
0.0
 40
1.0
 40
1.0
 40
1.0
 40
2.0
 40
2.0
 40
2.0
 40
3.0
 40
3.0
 40
3.0
 40
4.0
 40
4.0
 40
4.0
 40
5.0
 40
5.0
 40
5.0
 40
6.0
 40
6.0
 40
6.0
 40
7.0
 40
7.0
 40
7.0
 40
8.0
 40
8.0
 40
8.0
 40
9.0
 40
9.0
 40
9.0
 40
10.0
 40
10.0
 40
10.0
 40
11.0
 40
11.0
 40
11.0
 40
12.0
 40
12.0
 40
12.0
 40
13.0
 40
13.0
 40
13.0
 40
14.0
 40
14.0
 40
14.0
 40
15.0
 40
15.0
 40
15.0
 40
16.0
 40
16.0
 40
16.0
 40
17.0
 40
17.0
 40
17.0
 40
18.0
 40
18.0
 40
18.0
 40
19.0
 40
19.0
 40
19.0
 40
20.0
 40
20.0
 40
20.0
 40
21.0
 40
21.0
 40
21.0
 40
22.0
 40
22.0
 40
22.0
 40
23.0
 40
23.0
 40
23.0
 40
24.0
 40
24.0
 40
24.0
 40
25.0
 40
25.0
 40
25.0
 40
26.0
 40
26.0
 40
26.0
 40
27.0
 40
27.0
 40
27.0
 40
28.0
 40
28.0
 40
28.0
 40
29.0
 40
29.0
 40
29.0
 40
30.0
 40
30.0
 40
30.0
 40
31.0
 40
31.0
 40
31.0
 40
32.0
 40
32.0
 40
32.0
 40
33.0
 40
33.0
 40
33.0
 40
34.0
 40
34.0
 40
34.0
 40
35.0
 40
35.0
 40
35.0
 40
36.0
 40
36.0
 40
36.0
 40
37.0
 40
37.0
 40
37.0
 40
38.0
 40
38.0
 40
38.0
 40
39.0
 40
39.0
 40
39.0
 40
40.0
 40
40.0
 40
40.0
 40
41.0
 40
41.0
 40
41.0
 40
42.0
 40
42.0
 40
42.0
 40
43.0
 40
43.0
 40
43.0
 40
44.0
 40
44.0
 40
44.0
 40
45.0
 40
45.0
 40
45.0
 40
46.0
 40
46.0
 40
46.0
 40
47.0
 40
47.0
 40
47.0
 40
48.0
 40
48.0
 40
48.0
 40
48.0
 10
-56.52451359586635
 20
100.457899974885
 30
0.0
 10
-56.52451359586635
 20
89.59169997760111
 30
0.0
 10
-56.52451359586635
 20
78.72559998031835
 30
0.0
 10
-56.52451359586635
 20
67.85939998303452
 30
0.0
 10
-97.15441255931127
 20
67.85939998303452
 30
0.0
 10
-137.7843115227562
 20
67.85939998303452
 30
0.0
 10
-178.4142104862011
 20
67.85939998303452
 30
0.0
 10
-159.362410972253
 20
66.08719998347814
 30
0.0
 10
-140.3107114583024
 20
64.31489998392067
 30
0.0
 10
-121.2589119443543
 20
62.54269998436429
 30
0.0
 10
-113.9713121302764
 20
61.86469998453391
 30
0.0
 10
-108.3985122724504
 20
55.74939998606143
 30
0.0
 10
-108.3985122724504
 20
48.43039998789168
 30
0.0
 10
-108.3985122724504
 20
38.08779999047739
 30
0.0
 10
-108.3985122724504
 20
27.74529999306235
 30
0.0
 10
-108.3985122724504
 20
17.40269999564806
 30
0.0
 10
-107.4536122965568
 20
17.40269999564806
 30
0.0
 10
-106.5087123206632
 20
17.40269999564806
 30
0.0
 10
-105.5638123447696
 20
17.40269999564806
 30
0.0
 10
-97.72131254484844
 20
17.40269999564806
 30
0.0
 10
-89.87881274492729
 20
17.40269999564806
 30
0.0
 10
-82.03631294500613
 20
17.40269999564806
 30
0.0
 10
-82.03631294500613
 20
-1.683899999579019
 30
0.0
 10
-82.03631294500613
 20
-20.77049999480791
 30
0.0
 10
-82.03631294500613
 20
-39.85709999003681
 30
0.0
 10
-84.87091287268946
 20
-39.85709999003681
 30
0.0
 10
-87.70561280037023
 20
-39.85709999003681
 30
0.0
 10
-90.54021272805358
 20
-39.85709999003681
 30
0.0
 10
-93.67131264817256
 20
-39.85709999003681
 30
0.0
 10
-96.20951258341768
 20
-42.39529998940131
 30
0.0
 10
-96.20951258341768
 20
-45.52639998861905
 30
0.0
 10
-96.20951258341768
 20
-45.81209998854798
 30
0.0
 10
-96.20951258341768
 20
-46.09769998847583
 30
0.0
 10
-96.20951258341768
 20
-46.38339998840477
 30
0.0
 10
-123.6111118843446
 20
-48.93239998776659
 30
0.0
 10
-151.0126111852742
 20
-51.48129998713096
 30
0.0
 10
-178.4142104862011
 20
-54.03029998649278
 30
0.0
 10
-242.6662088469961
 20
-54.03029998649278
 30
0.0
 10
-306.918207207791
 20
-54.03029998649278
 30
0.0
 10
-371.1701055685885
 20
-54.03029998649278
 30
0.0
 10
-403.296104748986
 20
-51.0418999872397
 30
0.0
 10
-435.4221039293835
 20
-48.05339998798734
 30
0.0
 10
-467.548103109781
 20
-45.06489998873499
 30
0.0
 10
-467.548103109781
 20
-43.32899998916747
 30
0.0
 10
-467.548103109781
 20
-41.5929999896025
 30
0.0
 10
-467.548103109781
 20
-39.85709999003681
 30
0.0
 10
-467.548103109781
 20
-20.77049999480791
 30
0.0
 10
-467.548103109781
 20
-1.683899999579019
 30
0.0
 10
-467.548103109781
 20
17.40269999564806
 30
0.0
 10
-459.7056033098598
 20
17.40269999564806
 30
0.0
 10
-451.8630035099412
 20
17.40269999564806
 30
0.0
 10
-444.02050371002
 20
17.40269999564806
 30
0.0
 10
-443.0756037341264
 20
17.40269999564806
 30
0.0
 10
-442.1307037582328
 20
17.40269999564806
 30
0.0
 10
-441.1859037823367
 20
17.40269999564806
 30
0.0
 10
-441.1859037823367
 20
27.74529999306235
 30
0.0
 10
-441.1859037823367
 20
38.08779999047739
 30
0.0
 10
-441.1859037823367
 20
48.43039998789168
 30
0.0
 10
-441.1859037823367
 20
55.74939998606143
 30
0.0
 10
-435.6130039245132
 20
61.86469998453391
 30
0.0
 10
-428.3254041104354
 20
62.54269998436429
 30
0.0
 10
-409.2736045964873
 20
64.31489998392067
 30
0.0
 10
-390.2219050825366
 20
66.08719998347814
 30
0.0
 10
-371.1701055685885
 20
67.85939998303452
 30
0.0
 10
-411.8000045320334
 20
67.85939998303452
 30
0.0
 10
-452.4300034954758
 20
67.85939998303452
 30
0.0
 10
-493.0599024589207
 20
67.85939998303452
 30
0.0
 10
-493.0599024589207
 20
132.1113999669719
 30
0.0
 10
-493.0599024589207
 20
196.3633999509093
 30
0.0
 10
-493.0599024589207
 20
260.6152999348461
 30
0.0
 10
-452.4300034954758
 20
260.6152999348461
 30
0.0
 10
-411.8000045320334
 20
260.6152999348461
 30
0.0
 10
-371.1701055685885
 20
260.6152999348461
 30
0.0
 10
-390.2219050825366
 20
262.3875999344027
 30
0.0
 10
-409.2736045964873
 20
264.1598999339592
 30
0.0
 10
-428.3254041104354
 20
265.9320999335165
 30
0.0
 10
-435.6130039245132
 20
266.6099999333467
 30
0.0
 10
-441.1859037823367
 20
272.7253999318185
 30
0.0
 10
-441.1859037823367
 20
280.0443999299882
 30
0.0
 10
-441.1859037823367
 20
290.3869999274025
 30
0.0
 10
-441.1859037823367
 20
300.7294999248176
 30
0.0
 10
-441.1859037823367
 20
311.0719999222317
 30
0.0
 10
-442.1307037582328
 20
311.0719999222317
 30
0.0
 10
-443.0756037341264
 20
311.0719999222317
 30
0.0
 10
-444.02050371002
 20
311.0719999222317
 30
0.0
 10
-451.8630035099412
 20
311.0719999222317
 30
0.0
 10
-459.7056033098598
 20
311.0719999222317
 30
0.0
 10
-467.548103109781
 20
311.0719999222317
 30
0.0
 10
-467.548103109781
 20
330.1585999174596
 30
0.0
 10
-467.548103109781
 20
349.2452999126887
 30
0.0
 10
-467.548103109781
 20
368.3318999079167
 30
0.0
 10
-467.548103109781
 20
370.0677999074824
 30
0.0
 10
-467.548103109781
 20
371.8037999070482
 30
0.0
 10
-467.548103109781
 20
373.5396999066149
 30
0.0
 10
-435.4221039293835
 20
376.5281999058672
 30
0.0
 10
-403.296104748986
 20
379.5165999051203
 30
0.0
 10
-371.1701055685885
 20
382.5050999043736
 30
0.0
 10
-306.918207207791
 20
382.5050999043736
 30
0.0
 10
-242.6662088469961
 20
382.5050999043736
 30
0.0
 10
-178.4142104862011
 20
382.5050999043736
 30
0.0
 10
-151.0126111852742
 20
379.9560999050108
 30
0.0
 10
-123.6111118843446
 20
377.4070999056481
 30
0.0
 10
-96.20951258341768
 20
374.8581999062847
 30
0.0
 10
-96.20951258341768
 20
374.5724999063567
 30
0.0
 10
-96.20951258341768
 20
374.2867999064277
 30
0.0
 10
-96.20951258341768
 20
374.0011999064989
 30
0.0
 10
-96.20951258341768
 20
370.8700999072821
 30
0.0
 10
-93.67131264817256
 20
368.3318999079167
 30
0.0
 10
-90.54021272805358
 20
368.3318999079167
 30
0.0
 10
-87.70561280037023
 20
368.3318999079167
 30
0.0
 10
-84.87091287268946
 20
368.3318999079167
 30
0.0
 10
-82.03631294500613
 20
368.3318999079167
 30
0.0
 10
-82.03631294500613
 20
349.2452999126887
 30
0.0
 10
-82.03631294500613
 20
330.1585999174596
 30
0.0
 10
-82.03631294500613
 20
311.0719999222317
 30
0.0
 10
-89.87881274492729
 20
311.0719999222317
 30
0.0
 10
-97.72131254484844
 20
311.0719999222317
 30
0.0
 10
-105.5638123447696
 20
311.0719999222317
 30
0.0
 10
-106.5087123206632
 20
311.0719999222317
 30
0.0
 10
-107.4536122965568
 20
311.0719999222317
 30
0.0
 10
-108.3985122724504
 20
311.0719999222317
 30
0.0
 10
-108.3985122724504
 20
300.7294999248176
 30
0.0
 10
-108.3985122724504
 20
290.3869999274025
 30
0.0
 10
-108.3985122724504
 20
280.0443999299882
 30
0.0
 10
-108.3985122724504
 20
272.7253999318185
 30
0.0
 10
-113.9713121302764
 20
266.6099999333467
 30
0.0
 10
-121.2589119443543
 20
265.9320999335165
 30
0.0
 10
-140.3107114583024
 20
264.1598999339592
 30
0.0
 10
-159.362410972253
 20
262.3875999344027
 30
0.0
 10
-178.4142104862011
 20
260.6152999348461
 30
0.0
 10
-137.7843115227562
 20
260.6152999348461
 30
0.0
 10
-97.15441255931127
 20
260.6152999348461
 30
0.0
 10
-56.52451359586635
 20
260.6152999348461
 30
0.0
 10
-56.52451359586635
 20
257.7806999355546
 30
0.0
 10
-56.52451359586635
 20
254.945999936263
 30
0.0
 10
-56.52451359586635
 20
252.1113999369715
 30
0.0
 10
-56.52451359586635
 20
261.5601999346094
 30
0.0
 10
-56.52451359586635
 20
271.0089999322473
 30
0.0
 10
-56.52451359586635
 20
280.4578999298854
 30
0.0
 10
7.727484764928599
 20
280.4578999298854
 30
0.0
 10
71.97948312572355
 20
280.4578999298854
 30
0.0
 10
136.2314814865185
 20
280.4578999298854
 30
0.0
 10
136.2314814865185
 20
271.0089999322473
 30
0.0
 10
136.2314814865185
 20
261.5601999346094
 30
0.0
 10
136.2314814865185
 20
252.1113999369715
 30
0.0
  0
POLYLINE
  5
95
330
1F
100
AcDbEntity
  8
TAGLIO_ESTERNI
 62
     1
100
AcDb2dPolyline
 66
     1
 10
0.0
 20
0.0
 30
0.0
  0
VERTEX
  5
96
330
95
100
AcDbEntity
  8
TAGLIO_ESTERNI
 62
     1
100
AcDbVertex
100
AcDb2dVertex
 10
-453.3748034713719
 20
374.0011999064989
 30
0.0
  0
VERTEX
  5
97
330
95
100
AcDbEntity
  8
TAGLIO_ESTERNI
 62
     1
100
AcDbVertex
100
AcDb2dVertex
 10
-453.3748034713719
 20
374.8581999062847
 30
0.0
  0
SEQEND
  5
98
330
95
100
AcDbEntity
  8
TAGLIO_ESTERNI
 62
     1
  0
POLYLINE
  5
99
330
1F
100
AcDbEntity
  8
TAGLIO_ESTERNI
 62
     1
100
AcDb2dPolyline
 66
     1
 10
0.0
 20
0.0
 30
0.0
  0
VERTEX
  5
9A
330
99
100
AcDbEntity
  8
TAGLIO_ESTERNI
 62
     1
100
AcDbVertex
100
AcDb2dVertex
 10
-453.3748034713719
 20
-46.38339998840477
 30
0.0
  0
VERTEX
  5
9B
330
99
100
AcDbEntity
  8
TAGLIO_ESTERNI
 62
     1
100
AcDbVertex
100
AcDb2dVertex
 10
-453.3748034713719
 20
-45.52639998861905
 30
0.0
  0
SEQEND
  5
9C
330
99
100
AcDbEntity
  8
TAGLIO_ESTERNI
 62
     1
  0
SPLINE
  5
9D
330
1F
100
AcDbEntity
  8
TAGLIO_ESTERNI
 62
     1
100
AcDbSpline
210
0.0
220
0.0
230
1.0
 70
     8
 71
     3
 72
    32
 73
    28
 74
     0
 42
0.0000000001
 43
0.0000000001
 12
1.0
 22
0.0
 32
0.0
 13
1.0
 23
0.0
 33
0.0
 40
0.0
 40
0.0
 40
0.0
 40
0.0
 40
1.0
 40
1.0
 40
1.0
 40
2.0
 40
2.0
 40
2.0
 40
3.0
 40
3.0
 40
3.0
 40
4.0
 40
4.0
 40
4.0
 40
5.0
 40
5.0
 40
5.0
 40
6.0
 40
6.0
 40
6.0
 40
7.0
 40
7.0
 40
7.0
 40
8.0
 40
8.0
 40
8.0
 40
9.0
 40
9.0
 40
9.0
 40
9.0
 10
136.2314814865185
 20
274.7885999313023
 30
0.0
 10
136.2314814865185
 20
277.9195999305198
 30
0.0
 10
138.7696814217636
 20
280.4578999298854
 30
0.0
 10
141.9006813418852
 20
280.4578999298854
 30
0.0
 10
147.5699811972493
 20
280.4578999298854
 30
0.0
 10
153.2392810526134
 20
280.4578999298854
 30
0.0
 10
158.9085809079775
 20
280.4578999298854
 30
0.0
 10
162.0396808280965
 20
280.4578999298854
 30
0.0
 10
164.5778807633416
 20
277.9195999305198
 30
0.0
 10
164.5778807633416
 20
274.7885999313023
 30
0.0
 10
164.5778807633416
 20
267.2294999331925
 30
0.0
 10
164.5778807633416
 20
259.6704999350821
 30
0.0
 10
164.5778807633416
 20
252.1113999369715
 30
0.0
 10
164.5778807633416
 20
201.5601999496099
 30
0.0
 10
164.5778807633416
 20
151.0089999622478
 30
0.0
 10
164.5778807633416
 20
100.457899974885
 30
0.0
 10
164.5778807633416
 20
92.89879997677433
 30
0.0
 10
164.5778807633416
 20
85.33969997866552
 30
0.0
 10
164.5778807633416
 20
77.78069998055416
 30
0.0
 10
164.5778807633416
 20
74.64959998133642
 30
0.0
 10
162.0396808280965
 20
72.11139998197193
 30
0.0
 10
158.9085809079775
 20
72.11139998197193
 30
0.0
 10
153.2392810526134
 20
72.11139998197193
 30
0.0
 10
147.5699811972493
 20
72.11139998197193
 30
0.0
 10
141.9006813418852
 20
72.11139998197193
 30
0.0
 10
138.7696814217636
 20
72.11139998197193
 30
0.0
 10
136.2314814865185
 20
74.64959998133642
 30
0.0
 10
136.2314814865185
 20
77.78069998055416
 30
0.0
  0
POLYLINE
  5
9E
330
1F
100
AcDbEntity
  8
TAGLIO_ESTERNI
 62
     1
100
AcDb2dPolyline
 66
     1
 10
0.0
 20
0.0
 30
0.0
  0
VERTEX
  5
9F
330
9E
100
AcDbEntity
  8
TAGLIO_ESTERNI
 62
     1
100
AcDbVertex
100
AcDb2dVertex
 10
136.2314814865185
 20
100.457899974885
 30
0.0
  0
VERTEX
  5
A0
330
9E
100
AcDbEntity
  8
TAGLIO_ESTERNI
 62
     1
100
AcDbVertex
100
AcDb2dVertex
 10
136.2314814865185
 20
72.11139998197193
 30
0.0
  0
VERTEX
  5
A1
330
9E
100
AcDbEntity
  8
TAGLIO_ESTERNI
 62
     1
100
AcDbVertex
100
AcDb2dVertex
 10
-56.52451359586635
 20
72.11139998197193
 30
0.0
  0
SEQEND
  5
A2
330
9E
100
AcDbEntity
  8
TAGLIO_ESTERNI
 62
     1
  0
SPLINE
  5
A3
330
1F
100
AcDbEntity
  8
TAGLIO_ESTERNI
 62
     1
100
AcDbSpline
210
0.0
220
0.0
230
1.0
 70
    11
 71
     3
 72
   158
 73
   154
 74
     0
 42
0.0000000001
 43
0.0000000001
 12
1.0
 22
0.0
 32
0.0
 13
1.0
 23
0.0
 33
0.0
 40
0.0
 40
0.0
 40
0.0
 40
0.0
 40
1.0
 40
1.0
 40
1.0
 40
2.0
 40
2.0
 40
2.0
 40
3.0
 40
3.0
 40
3.0
 40
4.0
 40
4.0
 40
4.0
 40
5.0
 40
5.0
 40
5.0
 40
6.0
 40
6.0
 40
6.0
 40
7.0
 40
7.0
 40
7.0
 40
8.0
 40
8.0
 40
8.0
 40
9.0
 40
9.0
 40
9.0
 40
10.0
 40
10.0
 40
10.0
 40
11.0
 40
11.0
 40
11.0
 40
12.0
 40
12.0
 40
12.0
 40
13.0
 40
13.0
 40
13.0
 40
14.0
 40
14.0
 40
14.0
 40
15.0
 40
15.0
 40
15.0
 40
16.0
 40
16.0
 40
16.0
 40
17.0
 40
17.0
 40
17.0
 40
18.0
 40
18.0
 40
18.0
 40
19.0
 40
19.0
 40
19.0
 40
20.0
 40
20.0
 40
20.0
 40
21.0
 40
21.0
 40
21.0
 40
22.0
 40
22.0
 40
22.0
 40
23.0
 40
23.0
 40
23.0
 40
24.0
 40
24.0
 40
24.0
 40
25.0
 40
25.0
 40
25.0
 40
26.0
 40
26.0
 40
26.0
 40
27.0
 40
27.0
 40
27.0
 40
28.0
 40
28.0
 40
28.0
 40
29.0
 40
29.0
 40
29.0
 40
30.0
 40
30.0
 40
30.0
 40
31.0
 40
31.0
 40
31.0
 40
32.0
 40
32.0
 40
32.0
 40
33.0
 40
33.0
 40
33.0
 40
34.0
 40
34.0
 40
34.0
 40
35.0
 40
35.0
 40
35.0
 40
36.0
 40
36.0
 40
36.0
 40
37.0
 40
37.0
 40
37.0
 40
38.0
 40
38.0
 40
38.0
 40
39.0
 40
39.0
 40
39.0
 40
40.0
 40
40.0
 40
40.0
 40
41.0
 40
41.0
 40
41.0
 40
42.0
 40
42.0
 40
42.0
 40
43.0
 40
43.0
 40
43.0
 40
44.0
 40
44.0
 40
44.0
 40
45.0
 40
45.0
 40
45.0
 40
46.0
 40
46.0
 40
46.0
 40
47.0
 40
47.0
 40
47.0
 40
48.0
 40
48.0
 40
48.0
 40
49.0
 40
49.0
 40
49.0
 40
50.0
 40
50.0
 40
50.0
 40
51.0
 40
51.0
 40
51.0
 40
51.0
 10
0.2628849553664065
 20
-165.3960999586509
 30
0.0
 10
0.2628849553664065
 20
-111.5848999721036
 30
0.0
 10
0.2628849553664065
 20
-57.7737999855574
 30
0.0
 10
0.2628849553664065
 20
-3.962599999010098
 30
0.0
 10
0.2628849553664065
 20
3.318899999170487
 30
0.0
 10
5.780484814600706
 20
9.415699997645635
 30
0.0
 10
13.02578462975771
 20
10.14019999746477
 30
0.0
 10
27.19668426822794
 20
11.55729999711107
 30
0.0
 10
41.36758390669817
 20
12.97439999675555
 30
0.0
 10
55.5384835451684
 20
14.39149999640185
 30
0.0
 10
55.5384835451684
 20
12.54899999686182
 30
0.0
 10
55.5384835451684
 20
10.70649999732361
 30
0.0
 10
55.5384835451684
 20
8.863999997783578
 30
0.0
 10
56.48338352106199
 20
8.863999997783578
 30
0.0
 10
57.42828349695559
 20
8.863999997783578
 30
0.0
 10
58.37308347285173
 20
8.863999997783578
 30
0.0
 10
58.37308347285173
 20
10.75369999731087
 30
0.0
 10
58.37308347285173
 20
12.64349999683925
 30
0.0
 10
58.37308347285173
 20
14.53319999636655
 30
0.0
 10
124.0423817974883
 20
14.53319999636655
 30
0.0
 10
189.711680122125
 20
14.53319999636655
 30
0.0
 10
255.3809784467616
 20
14.53319999636655
 30
0.0
 10
245.9321786878205
 20
23.98209999400374
 30
0.0
 10
236.4833789288795
 20
33.43089999164166
 30
0.0
 10
227.0345791699385
 20
42.87969998927958
 30
0.0
 10
227.0345791699385
 20
99.57259997510636
 30
0.0
 10
227.0345791699385
 20
156.2654999609331
 30
0.0
 10
227.0345791699385
 20
212.9583999467599
 30
0.0
 10
236.4833789288795
 20
212.9583999467599
 30
0.0
 10
245.9321786878205
 20
212.9583999467599
 30
0.0
 10
255.3809784467616
 20
212.9583999467599
 30
0.0
 10
255.3809784467616
 20
279.1001999302243
 30
0.0
 10
255.3809784467616
 20
345.2418999136891
 30
0.0
 10
255.3809784467616
 20
411.3835998971538
 30
0.0
 10
321.5226767593463
 20
411.3835998971538
 30
0.0
 10
387.6644750719284
 20
411.3835998971538
 30
0.0
 10
453.8061998865484
 20
411.3835998971538
 30
0.0
 10
486.9973998782509
 20
397.2108999006969
 30
0.0
 10
520.1885998699532
 20
383.0381999042399
 30
0.0
 10
553.379899861655
 20
368.865499907783
 30
0.0
 10
558.1042998604739
 20
368.865499907783
 30
0.0
 10
562.8286998592928
 20
368.865499907783
 30
0.0
 10
567.5530998581118
 20
368.865499907783
 30
0.0
 10
575.3806998561554
 20
368.865499907783
 30
0.0
 10
581.7262998545687
 20
362.5198999093698
 30
0.0
 10
581.7262998545687
 20
354.6922999113262
 30
0.0
 10
581.7262998545687
 20
326.3447999184132
 30
0.0
 10
581.7262998545687
 20
297.9972999255002
 30
0.0
 10
581.7262998545687
 20
269.6497999325873
 30
0.0
 10
581.7262998545687
 20
261.8221999345445
 30
0.0
 10
575.3806998561554
 20
255.4765999361304
 30
0.0
 10
567.5530998581118
 20
255.4765999361304
 30
0.0
 10
562.8286998592928
 20
255.4765999361304
 30
0.0
 10
558.1042998604739
 20
255.4765999361304
 30
0.0
 10
553.379899861655
 20
255.4765999361304
 30
0.0
 10
520.1885998699532
 20
241.3038999396734
 30
0.0
 10
486.9973998782509
 20
227.1311999432166
 30
0.0
 10
453.8061998865484
 20
212.9583999467599
 30
0.0
 10
481.2448998796893
 20
212.9583999467599
 30
0.0
 10
508.6835998728294
 20
212.9583999467599
 30
0.0
 10
536.1222998659694
 20
212.9583999467599
 30
0.0
 10
536.1222998659694
 20
181.4325999546419
 30
0.0
 10
536.1222998659694
 20
149.9067999625221
 30
0.0
 10
536.1222998659694
 20
118.3808999704049
 30
0.0
 10
536.1222998659694
 20
108.1624999729597
 30
0.0
 10
525.637299868591
 20
101.3018999746749
 30
0.0
 10
516.2738998709317
 20
105.3934999736518
 30
0.0
 10
509.9025998725247
 20
108.1775999729547
 30
0.0
 10
503.531399874117
 20
110.9616999722594
 30
0.0
 10
497.1601998757102
 20
113.7457999715623
 30
0.0
 10
482.7087998793231
 20
80.67499997983052
 30
0.0
 10
468.2574998829363
 20
47.60409998809944
 30
0.0
 10
453.8061998865484
 20
14.53319999636655
 30
0.0
 10
496.4461998758887
 20
14.53319999636655
 30
0.0
 10
539.0862998652284
 20
14.53319999636655
 30
0.0
 10
581.7262998545687
 20
14.53319999636655
 30
0.0
 10
581.7262998545687
 20
5.084899998728609
 30
0.0
 10
581.7262998545687
 20
-4.363399998909333
 30
0.0
 10
581.7262998545687
 20
-13.81169999654728
 30
0.0
 10
581.7262998545687
 20
-21.63929999459091
 30
0.0
 10
575.3806998561554
 20
-27.98489999300507
 30
0.0
 10
567.5530998581118
 20
-27.98489999300507
 30
0.0
 10
562.8286998592928
 20
-27.98489999300507
 30
0.0
 10
558.1042998604739
 20
-27.98489999300507
 30
0.0
 10
553.379899861655
 20
-27.98489999300507
 30
0.0
 10
553.379899861655
 20
-65.78119998355596
 30
0.0
 10
553.379899861655
 20
-103.5774999741069
 30
0.0
 10
553.379899861655
 20
-141.3737999646578
 30
0.0
 10
558.1042998604739
 20
-141.3737999646578
 30
0.0
 10
562.8286998592928
 20
-141.3737999646578
 30
0.0
 10
567.5530998581118
 20
-141.3737999646578
 30
0.0
 10
575.3806998561554
 20
-141.3737999646578
 30
0.0
 10
581.7262998545687
 20
-147.7193999630701
 30
0.0
 10
581.7262998545687
 20
-155.5469999611137
 30
0.0
 10
581.7262998545687
 20
-164.9952999587517
 30
0.0
 10
581.7262998545687
 20
-174.4435999563896
 30
0.0
 10
581.7262998545687
 20
-183.8919999540268
 30
0.0
 10
539.0862998652284
 20
-183.8919999540268
 30
0.0
 10
496.4461998758887
 20
-183.8919999540268
 30
0.0
 10
453.8061998865484
 20
-183.8919999540268
 30
0.0
 10
468.2574998829363
 20
-216.9627999457605
 30
0.0
 10
482.7087998793231
 20
-250.0336999374915
 30
0.0
 10
497.1601998757102
 20
-283.1044999292251
 30
0.0
 10
503.531399874117
 20
-280.3203999299204
 30
0.0
 10
509.9025998725247
 20
-277.5362999306157
 30
0.0
 10
516.2738998709317
 20
-274.7521999313128
 30
0.0
 10
525.637299868591
 20
-270.6605999323359
 30
0.0
 10
536.1222998659694
 20
-277.5211999306208
 30
0.0
 10
536.1222998659694
 20
-287.7395999280659
 30
0.0
 10
536.1222998659694
 20
-314.5410999213651
 30
0.0
 10
536.1222998659694
 20
-341.342499914665
 30
0.0
 10
536.1222998659694
 20
-368.143899907965
 30
0.0
 10
536.1222998659694
 20
-375.9715999060078
 30
0.0
 10
529.7766998675562
 20
-382.3170999044209
 30
0.0
 10
521.9490998695126
 20
-382.3170999044209
 30
0.0
 10
499.2347998751915
 20
-382.3170999044209
 30
0.0
 10
476.5204998808695
 20
-382.3170999044209
 30
0.0
 10
453.8061998865484
 20
-382.3170999044209
 30
0.0
 10
444.3573998889105
 20
-391.7659999020581
 30
0.0
 10
434.9085998912726
 20
-401.2147998996961
 30
0.0
 10
425.4597998936347
 20
-410.6635998973339
 30
0.0
 10
378.2156753129874
 20
-410.6635998973339
 30
0.0
 10
330.9715765182847
 20
-410.6635998973339
 30
0.0
 10
283.7274777235821
 20
-410.6635998973339
 30
0.0
 10
274.2786779646411
 20
-401.2147998996961
 30
0.0
 10
264.8297782057026
 20
-391.7659999020581
 30
0.0
 10
255.3809784467616
 20
-382.3170999044209
 30
0.0
 10
245.9321786878205
 20
-382.3170999044209
 30
0.0
 10
236.4833789288795
 20
-382.3170999044209
 30
0.0
 10
227.0345791699385
 20
-382.3170999044209
 30
0.0
 10
227.0345791699385
 20
-325.6241999185942
 30
0.0
 10
227.0345791699385
 20
-268.9312999327674
 30
0.0
 10
227.0345791699385
 20
-212.2383999469406
 30
0.0
 10
236.4833789288795
 20
-202.7895999493027
 30
0.0
 10
245.9321786878205
 20
-193.3407999516647
 30
0.0
 10
255.3809784467616
 20
-183.8919999540268
 30
0.0
 10
189.711680122125
 20
-183.8919999540268
 30
0.0
 10
124.0423817974883
 20
-183.8919999540268
 30
0.0
 10
58.37308347285173
 20
-183.8919999540268
 30
0.0
 10
58.37308347285173
 20
-182.0021999545003
 30
0.0
 10
58.37308347285173
 20
-180.1123999549719
 30
0.0
 10
58.37308347285173
 20
-178.2226999554446
 30
0.0
 10
57.42828349695559
 20
-178.2226999554446
 30
0.0
 10
56.48338352106199
 20
-178.2226999554446
 30
0.0
 10
55.5384835451684
 20
-178.2226999554446
 30
0.0
 10
55.5384835451684
 20
-180.0651999549846
 30
0.0
 10
55.5384835451684
 20
-181.9076999545228
 30
0.0
 10
55.5384835451684
 20
-183.7501999540629
 30
0.0
 10
41.36758390669817
 20
-182.3330999544166
 30
0.0
 10
27.19668426822794
 20
-180.9159999547721
 30
0.0
 10
13.02578462975771
 20
-179.498999955125
 30
0.0
 10
5.780484814600706
 20
-178.7743999553066
 30
0.0
 10
0.2628849553664065
 20
-172.6775999568315
 30
0.0
 10
0.2628849553664065
 20
-165.3960999586509
 30
0.0
  0
POLYLINE
  5
A5
330
1F
100
AcDbEntity
  8
PIEGA_CONTINUA
 62
     5
100
AcDb2dPolyline
 66
     1
 10
0.0
 20
0.0
 30
0.0
  0
VERTEX
  5
A6
330
A5
100
AcDbEntity
  8
PIEGA_CONTINUA
 62
     5
100
AcDbVertex
100
AcDb2dVertex
 10
-56.52451359586635
 20
178.4105999553966
 30
0.0
  0
VERTEX
  5
A7
330
A5
100
AcDbEntity
  8
PIEGA_CONTINUA
 62
     5
100
AcDbVertex
100
AcDb2dVertex
 10
-56.52451359586635
 20
252.1113999369715
 30
0.0
  0
VERTEX
  5
A8
330
A5
100
AcDbEntity
  8
PIEGA_CONTINUA
 62
     5
100
AcDbVertex
100
AcDb2dVertex
 10
136.2314814865185
 20
252.1113999369715
 30
0.0
  0
VERTEX
  5
A9
330
A5
100
AcDbEntity
  8
PIEGA_CONTINUA
 62
     5
100
AcDbVertex
100
AcDb2dVertex
 10
136.2314814865185
 20
100.457899974885
 30
0.0
  0
VERTEX
  5
AA
330
A5
100
AcDbEntity
  8
PIEGA_CONTINUA
 62
     5
100
AcDbVertex
100
AcDb2dVertex
 10
-56.52451359586635
 20
100.457899974885
 30
0.0
  0
VERTEX
  5
AB
330
A5
100
AcDbEntity
  8
PIEGA_CONTINUA
 62
     5
100
AcDbVertex
100
AcDb2dVertex
 10
-56.52451359586635
 20
150.0641999624828
 30
0.0
  0
SEQEND
  5
AC
330
A5
100
AcDbEntity
  8
PIEGA_CONTINUA
 62
     5
  0
POLYLINE
  5
AD
330
1F
100
AcDbEntity
  8
PIEGA_CONTINUA
 62
     5
100
AcDb2dPolyline
 66
     1
 10
0.0
 20
0.0
 30
0.0
  0
VERTEX
  5
AE
330
AD
100
AcDbEntity
  8
PIEGA_CONTINUA
 62
     5
100
AcDbVertex
100
AcDb2dVertex
 10
453.8061998865484
 20
14.53319999636655
 30
0.0
  0
VERTEX
  5
AF
330
AD
100
AcDbEntity
  8
PIEGA_CONTINUA
 62
     5
100
AcDbVertex
100
AcDb2dVertex
 10
255.3809784467616
 20
14.53319999636655
 30
0.0
  0
SEQEND
  5
B0
330
AD
100
AcDbEntity
  8
PIEGA_CONTINUA
 62
     5
  0
POLYLINE
  5
B1
330
1F
100
AcDbEntity
  8
PIEGA_CONTINUA
 62
     5
100
AcDb2dPolyline
 66
     1
 10
0.0
 20
0.0
 30
0.0
  0
VERTEX
  5
B2
330
B1
100
AcDbEntity
  8
PIEGA_CONTINUA
 62
     5
100
AcDbVertex
100
AcDb2dVertex
 10
255.3809784467616
 20
-183.8919999540268
 30
0.0
  0
VERTEX
  5
B3
330
B1
100
AcDbEntity
  8
PIEGA_CONTINUA
 62
     5
100
AcDbVertex
100
AcDb2dVertex
 10
453.8061998865484
 20
-183.8919999540268
 30
0.0
  0
SEQEND
  5
B4
330
B1
100
AcDbEntity
  8
PIEGA_CONTINUA
 62
     5
  0
POLYLINE
  5
B5
330
1F
100
AcDbEntity
  8
PIEGA_CONTINUA
 62
     5
100
AcDb2dPolyline
 66
     1
 10
0.0
 20
0.0
 30
0.0
  0
VERTEX
  5
B6
330
B5
100
AcDbEntity
  8
PIEGA_CONTINUA
 62
     5
100
AcDbVertex
100
AcDb2dVertex
 10
56.95578350901006
 20
-178.2226999554446
 30
0.0
  0
VERTEX
  5
B7
330
B5
100
AcDbEntity
  8
PIEGA_CONTINUA
 62
     5
100
AcDbVertex
100
AcDb2dVertex
 10
56.95578350901006
 20
8.863999997783578
 30
0.0
  0
SEQEND
  5
B8
330
B5
100
AcDbEntity
  8
PIEGA_CONTINUA
 62
     5
  0
POLYLINE
  5
B9
330
1F
100
AcDbEntity
  8
PIEGA_CONTINUA
 62
     5
100
AcDb2dPolyline
 66
     1
 10
0.0
 20
0.0
 30
0.0
  0
VERTEX
  5
BA
330
B9
100
AcDbEntity
  8
PIEGA_CONTINUA
 62
     5
100
AcDbVertex
100
AcDb2dVertex
 10
-317.3119069426256
 20
224.3318999439167
 30
0.0
  0
VERTEX
  5
BB
330
B9
100
AcDbEntity
  8
PIEGA_CONTINUA
 62
     5
100
AcDbVertex
100
AcDb2dVertex
 10
-254.9496085336204
 20
224.3318999439167
 30
0.0
  0
SEQEND
  5
BC
330
B9
100
AcDbEntity
  8
PIEGA_CONTINUA
 62
     5
  0
POLYLINE
  5
BD
330
1F
100
AcDbEntity
  8
PIEGA_CONTINUA
 62
     5
100
AcDb2dPolyline
 66
     1
 10
0.0
 20
0.0
 30
0.0
  0
VERTEX
  5
BE
330
BD
100
AcDbEntity
  8
PIEGA_CONTINUA
 62
     5
100
AcDbVertex
100
AcDb2dVertex
 10
-317.3119069426256
 20
287.6861999280781
 30
0.0
  0
VERTEX
  5
BF
330
BD
100
AcDbEntity
  8
PIEGA_CONTINUA
 62
     5
100
AcDbVertex
100
AcDb2dVertex
 10
-300.3040073765333
 20
287.6861999280781
 30
0.0
  0
SEQEND
  5
C0
330
BD
100
AcDbEntity
  8
PIEGA_CONTINUA
 62
     5
  0
POLYLINE
  5
C1
330
1F
100
AcDbEntity
  8
PIEGA_CONTINUA
 62
     5
100
AcDb2dPolyline
 66
     1
 10
0.0
 20
0.0
 30
0.0
  0
VERTEX
  5
C2
330
C1
100
AcDbEntity
  8
PIEGA_CONTINUA
 62
     5
100
AcDbVertex
100
AcDb2dVertex
 10
-271.9575080997128
 20
287.6861999280781
 30
0.0
  0
VERTEX
  5
C3
330
C1
100
AcDbEntity
  8
PIEGA_CONTINUA
 62
     5
100
AcDbVertex
100
AcDb2dVertex
 10
-254.9496085336204
 20
287.6861999280781
 30
0.0
  0
SEQEND
  5
C4
330
C1
100
AcDbEntity
  8
PIEGA_CONTINUA
 62
     5
  0
POLYLINE
  5
C5
330
1F
100
AcDbEntity
  8
PIEGA_CONTINUA
 62
     5
100
AcDb2dPolyline
 66
     1
 10
0.0
 20
0.0
 30
0.0
  0
VERTEX
  5
C6
330
C5
100
AcDbEntity
  8
PIEGA_CONTINUA
 62
     5
100
AcDbVertex
100
AcDb2dVertex
 10
-127.9575117734587
 20
135.8908999660276
 30
0.0
  0
VERTEX
  5
C7
330
C5
100
AcDbEntity
  8
PIEGA_CONTINUA
 62
     5
100
AcDbVertex
100
AcDb2dVertex
 10
-127.9575117734587
 20
192.5837999518544
 30
0.0
  0
SEQEND
  5
C8
330
C5
100
AcDbEntity
  8
PIEGA_CONTINUA
 62
     5
  0
POLYLINE
  5
C9
330
1F
100
AcDbEntity
  8
PIEGA_CONTINUA
 62
     5
100
AcDb2dPolyline
 66
     1
 10
0.0
 20
0.0
 30
0.0
  0
VERTEX
  5
CA
330
C9
100
AcDbEntity
  8
PIEGA_CONTINUA
 62
     5
100
AcDbVertex
100
AcDb2dVertex
 10
-178.4142104862011
 20
135.8908999660276
 30
0.0
  0
VERTEX
  5
CB
330
C9
100
AcDbEntity
  8
PIEGA_CONTINUA
 62
     5
100
AcDbVertex
100
AcDb2dVertex
 10
-178.4142104862011
 20
67.85939998303452
 30
0.0
  0
SEQEND
  5
CC
330
C9
100
AcDbEntity
  8
PIEGA_CONTINUA
 62
     5
  0
POLYLINE
  5
CD
330
1F
100
AcDbEntity
  8
PIEGA_CONTINUA
 62
     5
100
AcDb2dPolyline
 66
     1
 10
0.0
 20
0.0
 30
0.0
  0
VERTEX
  5
CE
330
CD
100
AcDbEntity
  8
PIEGA_CONTINUA
 62
     5
100
AcDbVertex
100
AcDb2dVertex
 10
-156.3040110502793
 20
178.4105999553966
 30
0.0
  0
VERTEX
  5
CF
330
CD
100
AcDbEntity
  8
PIEGA_CONTINUA
 62
     5
100
AcDbVertex
100
AcDb2dVertex
 10
-156.3040110502793
 20
192.5837999518544
 30
0.0
  0
SEQEND
  5
D0
330
CD
100
AcDbEntity
  8
PIEGA_CONTINUA
 62
     5
  0
POLYLINE
  5
D1
330
1F
100
AcDbEntity
  8
PIEGA_CONTINUA
 62
     5
100
AcDb2dPolyline
 66
     1
 10
0.0
 20
0.0
 30
0.0
  0
VERTEX
  5
D2
330
D1
100
AcDbEntity
  8
PIEGA_CONTINUA
 62
     5
100
AcDbVertex
100
AcDb2dVertex
 10
-156.3040110502793
 20
135.8908999660276
 30
0.0
  0
VERTEX
  5
D3
330
D1
100
AcDbEntity
  8
PIEGA_CONTINUA
 62
     5
100
AcDbVertex
100
AcDb2dVertex
 10
-156.3040110502793
 20
150.0641999624828
 30
0.0
  0
SEQEND
  5
D4
330
D1
100
AcDbEntity
  8
PIEGA_CONTINUA
 62
     5
  0
POLYLINE
  5
D5
330
1F
100
AcDbEntity
  8
PIEGA_CONTINUA
 62
     5
100
AcDb2dPolyline
 66
     1
 10
0.0
 20
0.0
 30
0.0
  0
VERTEX
  5
D6
330
D5
100
AcDbEntity
  8
PIEGA_CONTINUA
 62
     5
100
AcDbVertex
100
AcDb2dVertex
 10
-207.3276097485588
 20
192.5837999518544
 30
0.0
  0
VERTEX
  5
D7
330
D5
100
AcDbEntity
  8
PIEGA_CONTINUA
 62
     5
100
AcDbVertex
100
AcDb2dVertex
 10
-207.3276097485588
 20
135.8908999660276
 30
0.0
  0
SEQEND
  5
D8
330
D5
100
AcDbEntity
  8
PIEGA_CONTINUA
 62
     5
  0
POLYLINE
  5
D9
330
1F
100
AcDbEntity
  8
PIEGA_CONTINUA
 62
     5
100
AcDb2dPolyline
 66
     1
 10
0.0
 20
0.0
 30
0.0
  0
VERTEX
  5
DA
330
D9
100
AcDbEntity
  8
PIEGA_CONTINUA
 62
     5
100
AcDbVertex
100
AcDb2dVertex
 10
-342.2567063062308
 20
192.5837999518544
 30
0.0
  0
VERTEX
  5
DB
330
D9
100
AcDbEntity
  8
PIEGA_CONTINUA
 62
     5
100
AcDbVertex
100
AcDb2dVertex
 10
-342.2567063062308
 20
135.8908999660276
 30
0.0
  0
SEQEND
  5
DC
330
D9
100
AcDbEntity
  8
PIEGA_CONTINUA
 62
     5
  0
POLYLINE
  5
DD
330
1F
100
AcDbEntity
  8
PIEGA_CONTINUA
 62
     5
100
AcDb2dPolyline
 66
     1
 10
0.0
 20
0.0
 30
0.0
  0
VERTEX
  5
DE
330
DD
100
AcDbEntity
  8
PIEGA_CONTINUA
 62
     5
100
AcDbVertex
100
AcDb2dVertex
 10
-393.2804050045078
 20
135.8908999660276
 30
0.0
  0
VERTEX
  5
DF
330
DD
100
AcDbEntity
  8
PIEGA_CONTINUA
 62
     5
100
AcDbVertex
100
AcDb2dVertex
 10
-393.2804050045078
 20
150.0641999624828
 30
0.0
  0
SEQEND
  5
E0
330
DD
100
AcDbEntity
  8
PIEGA_CONTINUA
 62
     5
  0
POLYLINE
  5
E1
330
1F
100
AcDbEntity
  8
PIEGA_CONTINUA
 62
     5
100
AcDb2dPolyline
 66
     1
 10
0.0
 20
0.0
 30
0.0
  0
VERTEX
  5
E2
330
E1
100
AcDbEntity
  8
PIEGA_CONTINUA
 62
     5
100
AcDbVertex
100
AcDb2dVertex
 10
-393.2804050045078
 20
178.4105999553966
 30
0.0
  0
VERTEX
  5
E3
330
E1
100
AcDbEntity
  8
PIEGA_CONTINUA
 62
     5
100
AcDbVertex
100
AcDb2dVertex
 10
-393.2804050045078
 20
192.5837999518544
 30
0.0
  0
SEQEND
  5
E4
330
E1
100
AcDbEntity
  8
PIEGA_CONTINUA
 62
     5
  0
POLYLINE
  5
E5
330
1F
100
AcDbEntity
  8
PIEGA_CONTINUA
 62
     5
100
AcDb2dPolyline
 66
     1
 10
0.0
 20
0.0
 30
0.0
  0
VERTEX
  5
E6
330
E5
100
AcDbEntity
  8
PIEGA_CONTINUA
 62
     5
100
AcDbVertex
100
AcDb2dVertex
 10
-421.6268042813309
 20
135.8908999660276
 30
0.0
  0
VERTEX
  5
E7
330
E5
100
AcDbEntity
  8
PIEGA_CONTINUA
 62
     5
100
AcDbVertex
100
AcDb2dVertex
 10
-421.6268042813309
 20
192.5837999518544
 30
0.0
  0
SEQEND
  5
E8
330
E5
100
AcDbEntity
  8
PIEGA_CONTINUA
 62
     5
  0
POLYLINE
  5
E9
330
1F
100
AcDbEntity
  8
PIEGA_CONTINUA
 62
     5
100
AcDb2dPolyline
 66
     1
 10
0.0
 20
0.0
 30
0.0
  0
VERTEX
  5
EA
330
E9
100
AcDbEntity
  8
PIEGA_CONTINUA
 62
     5
100
AcDbVertex
100
AcDb2dVertex
 10
-371.1701055685885
 20
67.85939998303452
 30
0.0
  0
VERTEX
  5
EB
330
E9
100
AcDbEntity
  8
PIEGA_CONTINUA
 62
     5
100
AcDbVertex
100
AcDb2dVertex
 10
-322.9811067979923
 20
67.85939998303452
 30
0.0
  0
SEQEND
  5
EC
330
E9
100
AcDbEntity
  8
PIEGA_CONTINUA
 62
     5
  0
POLYLINE
  5
ED
330
1F
100
AcDbEntity
  8
PIEGA_CONTINUA
 62
     5
100
AcDb2dPolyline
 66
     1
 10
0.0
 20
0.0
 30
0.0
  0
VERTEX
  5
EE
330
ED
100
AcDbEntity
  8
PIEGA_CONTINUA
 62
     5
100
AcDbVertex
100
AcDb2dVertex
 10
-371.1701055685885
 20
260.6152999348461
 30
0.0
  0
VERTEX
  5
EF
330
ED
100
AcDbEntity
  8
PIEGA_CONTINUA
 62
     5
100
AcDbVertex
100
AcDb2dVertex
 10
-317.3119069426256
 20
260.6152999348461
 30
0.0
  0
SEQEND
  5
F0
330
ED
100
AcDbEntity
  8
PIEGA_CONTINUA
 62
     5
  0
POLYLINE
  5
F1
330
1F
100
AcDbEntity
  8
PIEGA_CONTINUA
 62
     5
100
AcDb2dPolyline
 66
     1
 10
0.0
 20
0.0
 30
0.0
  0
VERTEX
  5
F2
330
F1
100
AcDbEntity
  8
PIEGA_CONTINUA
 62
     5
100
AcDbVertex
100
AcDb2dVertex
 10
-257.7843084613012
 20
28.17439999295628
 30
0.0
  0
VERTEX
  5
F3
330
F1
100
AcDbEntity
  8
PIEGA_CONTINUA
 62
     5
100
AcDbVertex
100
AcDb2dVertex
 10
-322.9811067979923
 20
28.17439999295628
 30
0.0
  0
SEQEND
  5
F4
330
F1
100
AcDbEntity
  8
PIEGA_CONTINUA
 62
     5
  0
POLYLINE
  5
F5
330
1F
100
AcDbEntity
  8
PIEGA_CONTINUA
 62
     5
100
AcDb2dPolyline
 66
     1
 10
0.0
 20
0.0
 30
0.0
  0
VERTEX
  5
F6
330
F5
100
AcDbEntity
  8
PIEGA_CONTINUA
 62
     5
100
AcDbVertex
100
AcDb2dVertex
 10
-257.7843084613012
 20
138.5837999653544
 30
0.0
  0
VERTEX
  5
F7
330
F5
100
AcDbEntity
  8
PIEGA_CONTINUA
 62
     5
100
AcDbVertex
100
AcDb2dVertex
 10
-322.9811067979923
 20
138.5837999653544
 30
0.0
  0
SEQEND
  5
F8
330
F5
100
AcDbEntity
  8
PIEGA_CONTINUA
 62
     5
  0
POLYLINE
  5
F9
330
1F
100
AcDbEntity
  8
PIEGA_CONTINUA
 62
     5
100
AcDb2dPolyline
 66
     1
 10
0.0
 20
0.0
 30
0.0
  0
VERTEX
  5
FA
330
F9
100
AcDbEntity
  8
PIEGA_CONTINUA
 62
     5
100
AcDbVertex
100
AcDb2dVertex
 10
-257.7843084613012
 20
98.19009997545227
 30
0.0
  0
VERTEX
  5
FB
330
F9
100
AcDbEntity
  8
PIEGA_CONTINUA
 62
     5
100
AcDbVertex
100
AcDb2dVertex
 10
-322.9811067979923
 20
98.19009997545227
 30
0.0
  0
SEQEND
  5
FC
330
F9
100
AcDbEntity
  8
PIEGA_CONTINUA
 62
     5
  0
POLYLINE
  5
FD
330
1F
100
AcDbEntity
  8
PIEGA_CONTINUA
 62
     5
100
AcDb2dPolyline
 66
     1
 10
0.0
 20
0.0
 30
0.0
  0
VERTEX
  5
FE
330
FD
100
AcDbEntity
  8
PIEGA_CONTINUA
 62
     5
100
AcDbVertex
100
AcDb2dVertex
 10
-178.4142104862011
 20
260.6152999348461
 30
0.0
  0
VERTEX
  5
FF
330
FD
100
AcDbEntity
  8
PIEGA_CONTINUA
 62
     5
100
AcDbVertex
100
AcDb2dVertex
 10
-178.4142104862011
 20
382.5050999043736
 30
0.0
  0
SEQEND
  5
100
330
FD
100
AcDbEntity
  8
PIEGA_CONTINUA
 62
     5
  0
POLYLINE
  5
101
330
1F
100
AcDbEntity
  8
PIEGA_CONTINUA
 62
     5
100
AcDb2dPolyline
 66
     1
 10
0.0
 20
0.0
 30
0.0
  0
VERTEX
  5
102
330
101
100
AcDbEntity
  8
PIEGA_CONTINUA
 62
     5
100
AcDbVertex
100
AcDb2dVertex
 10
-178.4142104862011
 20
192.5837999518544
 30
0.0
  0
VERTEX
  5
103
330
101
100
AcDbEntity
  8
PIEGA_CONTINUA
 62
     5
100
AcDbVertex
100
AcDb2dVertex
 10
-178.4142104862011
 20
260.6152999348461
 30
0.0
  0
SEQEND
  5
104
330
101
100
AcDbEntity
  8
PIEGA_CONTINUA
 62
     5
  0
POLYLINE
  5
105
330
1F
100
AcDbEntity
  8
PIEGA_CONTINUA
 62
     5
100
AcDb2dPolyline
 66
     1
 10
0.0
 20
0.0
 30
0.0
  0
VERTEX
  5
106
330
105
100
AcDbEntity
  8
PIEGA_CONTINUA
 62
     5
100
AcDbVertex
100
AcDb2dVertex
 10
-371.1701055685885
 20
135.8908999660276
 30
0.0
  0
VERTEX
  5
107
330
105
100
AcDbEntity
  8
PIEGA_CONTINUA
 62
     5
100
AcDbVertex
100
AcDb2dVertex
 10
-371.1701055685885
 20
67.85939998303452
 30
0.0
  0
SEQEND
  5
108
330
105
100
AcDbEntity
  8
PIEGA_CONTINUA
 62
     5
  0
POLYLINE
  5
109
330
1F
100
AcDbEntity
  8
PIEGA_CONTINUA
 62
     5
100
AcDb2dPolyline
 66
     1
 10
0.0
 20
0.0
 30
0.0
  0
VERTEX
  5
10A
330
109
100
AcDbEntity
  8
PIEGA_CONTINUA
 62
     5
100
AcDbVertex
100
AcDb2dVertex
 10
-371.1701055685885
 20
192.5837999518544
 30
0.0
  0
VERTEX
  5
10B
330
109
100
AcDbEntity
  8
PIEGA_CONTINUA
 62
     5
100
AcDbVertex
100
AcDb2dVertex
 10
-371.1701055685885
 20
260.6152999348461
 30
0.0
  0
SEQEND
  5
10C
330
109
100
AcDbEntity
  8
PIEGA_CONTINUA
 62
     5
  0
POLYLINE
  5
10D
330
1F
100
AcDbEntity
  8
PIEGA_CONTINUA
 62
     5
100
AcDb2dPolyline
 66
     1
 10
0.0
 20
0.0
 30
0.0
  0
VERTEX
  5
10E
330
10D
100
AcDbEntity
  8
PIEGA_CONTINUA
 62
     5
100
AcDbVertex
100
AcDb2dVertex
 10
-371.1701055685885
 20
-54.03029998649278
 30
0.0
  0
VERTEX
  5
10F
330
10D
100
AcDbEntity
  8
PIEGA_CONTINUA
 62
     5
100
AcDbVertex
100
AcDb2dVertex
 10
-371.1701055685885
 20
67.85939998303452
 30
0.0
  0
SEQEND
  5
110
330
10D
100
AcDbEntity
  8
PIEGA_CONTINUA
 62
     5
  0
POLYLINE
  5
111
330
1F
100
AcDbEntity
  8
PIEGA_CONTINUA
 62
     5
100
AcDb2dPolyline
 66
     1
 10
0.0
 20
0.0
 30
0.0
  0
VERTEX
  5
112
330
111
100
AcDbEntity
  8
PIEGA_CONTINUA
 62
     5
100
AcDbVertex
100
AcDb2dVertex
 10
-178.4142104862011
 20
67.85939998303452
 30
0.0
  0
VERTEX
  5
113
330
111
100
AcDbEntity
  8
PIEGA_CONTINUA
 62
     5
100
AcDbVertex
100
AcDb2dVertex
 10
-178.4142104862011
 20
-54.03029998649278
 30
0.0
  0
SEQEND
  5
114
330
111
100
AcDbEntity
  8
PIEGA_CONTINUA
 62
     5
  0
POLYLINE
  5
115
330
1F
100
AcDbEntity
  8
PIEGA_CONTINUA
 62
     5
100
AcDb2dPolyline
 66
     1
 10
0.0
 20
0.0
 30
0.0
  0
VERTEX
  5
116
330
115
100
AcDbEntity
  8
PIEGA_CONTINUA
 62
     5
100
AcDbVertex
100
AcDb2dVertex
 10
-178.4142104862011
 20
260.6152999348461
 30
0.0
  0
VERTEX
  5
117
330
115
100
AcDbEntity
  8
PIEGA_CONTINUA
 62
     5
100
AcDbVertex
100
AcDb2dVertex
 10
-254.9496085336204
 20
260.6152999348461
 30
0.0
  0
SEQEND
  5
118
330
115
100
AcDbEntity
  8
PIEGA_CONTINUA
 62
     5
  0
POLYLINE
  5
119
330
1F
100
AcDbEntity
  8
PIEGA_CONTINUA
 62
     5
100
AcDb2dPolyline
 66
     1
 10
0.0
 20
0.0
 30
0.0
  0
VERTEX
  5
11A
330
119
100
AcDbEntity
  8
PIEGA_CONTINUA
 62
     5
100
AcDbVertex
100
AcDb2dVertex
 10
136.2314814865185
 20
252.1113999369715
 30
0.0
  0
VERTEX
  5
11B
330
119
100
AcDbEntity
  8
PIEGA_CONTINUA
 62
     5
100
AcDbVertex
100
AcDb2dVertex
 10
164.5778807633416
 20
252.1113999369715
 30
0.0
  0
SEQEND
  5
11C
330
119
100
AcDbEntity
  8
PIEGA_CONTINUA
 62
     5
  0
POLYLINE
  5
11D
330
1F
100
AcDbEntity
  8
PIEGA_CONTINUA
 62
     5
100
AcDb2dPolyline
 66
     1
 10
0.0
 20
0.0
 30
0.0
  0
VERTEX
  5
11E
330
11D
100
AcDbEntity
  8
PIEGA_CONTINUA
 62
     5
100
AcDbVertex
100
AcDb2dVertex
 10
136.2314814865185
 20
100.457899974885
 30
0.0
  0
VERTEX
  5
11F
330
11D
100
AcDbEntity
  8
PIEGA_CONTINUA
 62
     5
100
AcDbVertex
100
AcDb2dVertex
 10
164.5778807633416
 20
100.457899974885
 30
0.0
  0
SEQEND
  5
120
330
11D
100
AcDbEntity
  8
PIEGA_CONTINUA
 62
     5
  0
POLYLINE
  5
121
330
1F
100
AcDbEntity
  8
PIEGA_CONTINUA
 62
     5
100
AcDb2dPolyline
 66
     1
 10
0.0
 20
0.0
 30
0.0
  0
VERTEX
  5
122
330
121
100
AcDbEntity
  8
PIEGA_CONTINUA
 62
     5
100
AcDbVertex
100
AcDb2dVertex
 10
-178.4142104862011
 20
67.85939998303452
 30
0.0
  0
VERTEX
  5
123
330
121
100
AcDbEntity
  8
PIEGA_CONTINUA
 62
     5
100
AcDbVertex
100
AcDb2dVertex
 10
-257.7843084613012
 20
67.85939998303452
 30
0.0
  0
SEQEND
  5
124
330
121
100
AcDbEntity
  8
PIEGA_CONTINUA
 62
     5
  0
POLYLINE
  5
125
330
1F
100
AcDbEntity
  8
PIEGA_CONTINUA
 62
     5
100
AcDb2dPolyline
 66
     1
 10
0.0
 20
0.0
 30
0.0
  0
VERTEX
  5
126
330
125
100
AcDbEntity
  8
PIEGA_CONTINUA
 62
     5
100
AcDbVertex
100
AcDb2dVertex
 10
-371.1701055685885
 20
382.5050999043736
 30
0.0
  0
VERTEX
  5
127
330
125
100
AcDbEntity
  8
PIEGA_CONTINUA
 62
     5
100
AcDbVertex
100
AcDb2dVertex
 10
-371.1701055685885
 20
260.6152999348461
 30
0.0
  0
SEQEND
  5
128
330
125
100
AcDbEntity
  8
PIEGA_CONTINUA
 62
     5
  0
POLYLINE
  5
129
330
1F
100
AcDbEntity
  8
PIEGA_CONTINUA
 62
     5
100
AcDb2dPolyline
 66
     1
 10
0.0
 20
0.0
 30
0.0
  0
VERTEX
  5
12A
330
129
100
AcDbEntity
  8
PIEGA_CONTINUA
 62
     5
100
AcDbVertex
100
AcDb2dVertex
 10
453.8061998865484
 20
212.9583999467599
 30
0.0
  0
VERTEX
  5
12B
330
129
100
AcDbEntity
  8
PIEGA_CONTINUA
 62
     5
100
AcDbVertex
100
AcDb2dVertex
 10
255.3809784467616
 20
212.9583999467599
 30
0.0
  0
VERTEX
  5
12C
330
129
100
AcDbEntity
  8
PIEGA_CONTINUA
 62
     5
100
AcDbVertex
100
AcDb2dVertex
 10
255.3809784467616
 20
14.53319999636655
 30
0.0
  0
VERTEX
  5
12D
330
129
100
AcDbEntity
  8
PIEGA_CONTINUA
 62
     5
100
AcDbVertex
100
AcDb2dVertex
 10
255.3809784467616
 20
-183.8919999540268
 30
0.0
  0
VERTEX
  5
12E
330
129
100
AcDbEntity
  8
PIEGA_CONTINUA
 62
     5
100
AcDbVertex
100
AcDb2dVertex
 10
255.3809784467616
 20
-382.3170999044209
 30
0.0
  0
VERTEX
  5
12F
330
129
100
AcDbEntity
  8
PIEGA_CONTINUA
 62
     5
100
AcDbVertex
100
AcDb2dVertex
 10
453.8061998865484
 20
-382.3170999044209
 30
0.0
  0
VERTEX
  5
130
330
129
100
AcDbEntity
  8
PIEGA_CONTINUA
 62
     5
100
AcDbVertex
100
AcDb2dVertex
 10
453.8061998865484
 20
-183.8919999540268
 30
0.0
  0
VERTEX
  5
131
330
129
100
AcDbEntity
  8
PIEGA_CONTINUA
 62
     5
100
AcDbVertex
100
AcDb2dVertex
 10
453.8061998865484
 20
14.53319999636655
 30
0.0
  0
VERTEX
  5
132
330
129
100
AcDbEntity
  8
PIEGA_CONTINUA
 62
     5
100
AcDbVertex
100
AcDb2dVertex
 10
453.8061998865484
 20
212.9583999467599
 30
0.0
  0
VERTEX
  5
133
330
129
100
AcDbEntity
  8
PIEGA_CONTINUA
 62
     5
100
AcDbVertex
100
AcDb2dVertex
 10
453.8061998865484
 20
411.3835998971538
 30
0.0
  0
SEQEND
  5
134
330
129
100
AcDbEntity
  8
PIEGA_CONTINUA
 62
     5
  0
POLYLINE
  5
135
330
1F
100
AcDbEntity
  8
PIEGA_CONTINUA
 62
     5
100
AcDb2dPolyline
 66
     1
 10
0.0
 20
0.0
 30
0.0
  0
VERTEX
  5
136
330
135
100
AcDbEntity
  8
PIEGA_CONTINUA
 62
     5
100
AcDbVertex
100
AcDb2dVertex
 10
-317.4155069399826
 20
323.9696999190068
 30
0.0
  0
VERTEX
  5
137
330
135
100
AcDbEntity
  8
PIEGA_CONTINUA
 62
     5
100
AcDbVertex
100
AcDb2dVertex
 10
-254.9496085336204
 20
323.9696999190068
 30
0.0
  0
SEQEND
  5
138
330
135
100
AcDbEntity
  8
PIEGA_CONTINUA
 62
     5
  0
ENDSEC
  0
SECTION
  2
OBJECTS
  0
DICTIONARY
  5
C
330
0
100
AcDbDictionary
  3
ACAD_GROUP
350
D
  3
ACAD_LAYOUT
350
1A
  3
ACAD_MATERIAL
350
3B
  3
ACAD_MLEADERSTYLE
350
15B
  3
ACAD_MLINESTYLE
350
17
  3
ACAD_PLOTSETTINGS
350
19
  3
ACAD_VISUALSTYLE
350
2A
  3
ACDBHEADERROUNDTRIPXREC
350
139
  3
ACDBVARIABLEDICTIONARY
350
159
  0
DICTIONARY
  5
D
102
{ACAD_REACTORS
330
C
102
}
330
C
100
AcDbDictionary
  0
DICTIONARY
  5
1A
102
{ACAD_REACTORS
330
C
102
}
330
C
100
AcDbDictionary
  0
DICTIONARY
  5
3B
102
{ACAD_REACTORS
330
C
102
}
330
C
100
AcDbDictionary
  3
BYBLOCK
350
3D
  3
BYLAYER
350
3C
  3
GLOBAL
350
3E
  0
DICTIONARY
  5
15B
102
{ACAD_REACTORS
330
C
102
}
330
C
100
AcDbDictionary
  0
DICTIONARY
  5
17
102
{ACAD_REACTORS
330
C
102
}
330
C
100
AcDbDictionary
  3
STANDARD
350
18
  0
DICTIONARY
  5
19
102
{ACAD_REACTORS
330
C
102
}
330
C
100
AcDbDictionary
  0
DICTIONARY
  5
2A
102
{ACAD_REACTORS
330
C
102
}
330
C
100
AcDbDictionary
  3
2DWIREFRAME
350
2F
  3
3DWIREFRAME
350
30
  3
3D_HIDDEN
350
31
  3
BASIC
350
32
  3
BRIGHTEN
350
36
  3
COLORCHANGE
350
3A
  3
CONCEPTUAL
350
34
  3
DIM
350
35
  3
FACEPATTERN
350
39
  3
FLAT
350
2B
  3
FLATWITHEDGES
350
2C
  3
GOURAUD
350
2D
  3
GOURAUDWITHEDGES
350
2E
  3
LINEPATTERN
350
38
  3
REALISTIC
350
33
  3
THICKEN
350
37
  0
DICTIONARY
  5
139
102
{ACAD_REACTORS
330
C
102
}
330
C
100
AcDbDictionary
  3
CEPSNTYPE
350
142
  3
DIMSTYLEDATA
350
158
  3
FINGERPRINTGUID
350
143
  3
HYPERLINKBASE
350
13C
  3
INSUNITS
350
141
  3
LAYOUTDICT
350
13E
  3
LWETCUNION
350
140
  3
PLOTSETDICT
350
13F
  3
PSVPSCALE
350
145
  3
PUCSBASE
350
148
  3
PUCSORGBACK
350
14E
  3
PUCSORGBOTTOM
350
14A
  3
PUCSORGFRONT
350
14D
  3
PUCSORGLEFT
350
14B
  3
PUCSORGRIGHT
350
14C
  3
PUCSORGTOP
350
149
  3
PUCSORTHOREF
350
146
  3
PUCSORTHOVIEW
350
147
  3
STYLESHEET
350
13D
  3
TSTACKALIGN
350
13A
  3
TSTACKSIZE
350
13B
  3
UCSBASE
350
151
  3
UCSORGBACK
350
157
  3
UCSORGBOTTOM
350
153
  3
UCSORGFRONT
350
156
  3
UCSORGLEFT
350
154
  3
UCSORGRIGHT
350
155
  3
UCSORGTOP
350
152
  3
UCSORTHOREF
350
14F
  3
UCSORTHOVIEW
350
150
  3
VERSIONGUID
350
144
  0
DICTIONARY
  5
159
102
{ACAD_REACTORS
330
C
102
}
330
C
100
AcDbDictionary
  3
DIMASSOC
350
15C
  3
HIDETEXT
350
15D
  0
MATERIAL
  5
3D
102
{ACAD_REACTORS
330
3B
102
}
102
{ACAD_XDICTIONARY
360
160
102
}
330
3B
100
AcDbMaterial
  1
ByBlock
  0
MATERIAL
  5
3C
102
{ACAD_REACTORS
330
3B
102
}
102
{ACAD_XDICTIONARY
360
15E
102
}
330
3B
100
AcDbMaterial
  1
ByLayer
  0
MATERIAL
  5
3E
102
{ACAD_REACTORS
330
3B
102
}
102
{ACAD_XDICTIONARY
360
162
102
}
330
3B
100
AcDbMaterial
  1
Global
  0
MLINESTYLE
  5
18
102
{ACAD_REACTORS
330
17
102
}
330
17
100
AcDbMlineStyle
  2
Standard
 70
     0
  3

 62
   256
 51
90.0
 52
90.0
 71
     2
 49
0.5
 62
   256
  6
BYLAYER
 49
-0.5
 62
   256
  6
BYLAYER
  0
ACAD_PROXY_OBJECT
  5
2F
102
{ACAD_REACTORS
330
2A
102
}
330
2A
100
AcDbProxyObject
 90
      499
 91
      501
 93
      436
310
42CC9915DA5C99599C985B595049028333333333333E3BF0000000000000FB0107901411070040501600405405064090741402480A0340
1001
ACAD
1000
AcDbSavedByObjectVersion
1070
     0
  0
ACAD_PROXY_OBJECT
  5
30
102
{ACAD_REACTORS
330
2A
102
}
330
2A
100
AcDbProxyObject
 90
      499
 91
      501
 93
      436
310
42CCD915DA5C99599C985B595059028333333333333E3BF0000000000000FB0107901411070040501600405405064090741402480A0340
1001
ACAD
1000
AcDbSavedByObjectVersion
1070
     0
  0
ACAD_PROXY_OBJECT
  5
31
102
{ACAD_REACTORS
330
2A
102
}
330
2A
100
AcDbProxyObject
 90
      499
 91
      501
 93
      500
310
424CD108121A5919195B90640502408333333333333E3BF0000000000000FB01079024090700405020000000000001110200405405064090740C02480A0340
1001
ACAD
1000
AcDbSavedByObjectVersion
1070
     0
  0
ACAD_PROXY_OBJECT
  5
32
102
{ACAD_REACTORS
330
2A
102
}
330
2A
100
AcDbProxyObject
 90
      499
 91
      501
 93
      388
310
4150985CDA58D07406404333333333333E3BF0000000000000FB0107A41107004050150841D405064090741402480A0350
1001
ACAD
1000
AcDbSavedByObjectVersion
1070
     0
  0
ACAD_PROXY_OBJECT
  5
36
102
{ACAD_REACTORS
330
2A
102
}
330
2A
100
AcDbProxyObject
 90
      499
 91
      501
 93
      428
310
42109C9A59DA1D195B90C409028333333333333E3BF0000000000000FB010790141107004050150841D405064090741402480A029950
1001
ACAD
1000
AcDbSavedByObjectVersion
1070
     0
  0
ACAD_PROXY_OBJECT
  5
3A
102
{ACAD_REACTORS
330
2A
102
}
330
2A
100
AcDbProxyObject
 90
      499
 91
      501
 93
      452
310
42D0DBDB1BDC90DA185B99D95104090240C333333333333E3BF0000000000000FB0108901411070040501508421405064090741402480A0350
1001
ACAD
1000
AcDbSavedByObjectVersion
1070
     0
  0
ACAD_PROXY_OBJECT
  5
34
102
{ACAD_REACTORS
330
2A
102
}
330
2A
100
AcDbProxyObject
 90
      499
 91
      501
 93
      500
310
4290DBDB98D95C1D1D585B10940D028333333333333E3BF0000000000000FB0107902409070040501000000000000111010841D405064090740C02480A0340
1001
ACAD
1000
AcDbSavedByObjectVersion
1070
     0
  0
ACAD_PROXY_OBJECT
  5
35
102
{ACAD_REACTORS
330
2A
102
}
330
2A
100
AcDbProxyObject
 90
      499
 91
      501
 93
      412
310
40D11A5B50B409028333333333333E3BF0000000000000FB010790141107004050150841D405064090741402480A02677FFFFFD0
1001
ACAD
1000
AcDbSavedByObjectVersion
1070
     0
  0
ACAD_PROXY_OBJECT
  5
39
102
{ACAD_REACTORS
330
2A
102
}
330
2A
100
AcDbProxyObject
 90
      499
 91
      501
 93
      444
310
42D19858D95C185D1D195C9B90F409028333333333333E3BF0000000000000FB010790141107004050150841D405064090741402480A0350
1001
ACAD
1000
AcDbSavedByObjectVersion
1070
     0
  0
ACAD_PROXY_OBJECT
  5
2B
102
{ACAD_REACTORS
330
2A
102
}
330
2A
100
AcDbProxyObject
 90
      499
 91
      501
 93
      388
310
41119B185D240901404333333333333E3BF0000000000000F9010740A41107004050150841D405064090741402480A1B50
1001
ACAD
1000
AcDbSavedByObjectVersion
1070
     0
  0
ACAD_PROXY_OBJECT
  5
2C
102
{ACAD_REACTORS
330
2A
102
}
330
2A
100
AcDbProxyObject
 90
      499
 91
      501
 93
      476
310
43519B185D15DA5D1A115919D95CD0140901404333333333333E3BF0000000000000F9010740901411070040501600405405064090741402480A1B50
1001
ACAD
1000
AcDbSavedByObjectVersion
1070
     0
  0
ACAD_PROXY_OBJECT
  5
2D
102
{ACAD_REACTORS
330
2A
102
}
330
2A
100
AcDbProxyObject
 90
      499
 91
      501
 93
      412
310
41D1DBDD5C985D5910240902404333333333333E3BF0000000000000F9010740A411070040501641D405064090741402480A1B50
1001
ACAD
1000
AcDbSavedByObjectVersion
1070
     0
  0
ACAD_PROXY_OBJECT
  5
2E
102
{ACAD_REACTORS
330
2A
102
}
330
2A
100
AcDbProxyObject
 90
      499
 91
      501
 93
      500
310
4411DBDD5C985D5915DA5D1A115919D95CD0340902404333333333333E3BF0000000000000F9010740901411070040501600405405064090741402480A1B50
1001
ACAD
1000
AcDbSavedByObjectVersion
1070
     0
  0
ACAD_PROXY_OBJECT
  5
38
102
{ACAD_REACTORS
330
2A
102
}
330
2A
100
AcDbProxyObject
 90
      499
 91
      501
 93
      444
310
42D31A5B995C185D1D195C9B90E409028333333333333E3BF0000000000000FB010790141107004050750841D405064090741402483A0350
1001
ACAD
1000
AcDbSavedByObjectVersion
1070
     0
  0
ACAD_PROXY_OBJECT
  5
33
102
{ACAD_REACTORS
330
2A
102
}
330
2A
100
AcDbProxyObject
 90
      499
 91
      501
 93
      420
310
425499585B1A5CDD1A58D08409028333333333333E3BF0000000000000FB01079019070040501508421405064090741402480A1B40
1001
ACAD
1000
AcDbSavedByObjectVersion
1070
     0
  0
ACAD_PROXY_OBJECT
  5
37
102
{ACAD_REACTORS
330
2A
102
}
330
2A
100
AcDbProxyObject
 90
      499
 91
      501
 93
      412
310
41D51A1A58DAD95B90D409028333333333333E3BF0000000000000FB010790141107004050150C41D405064090741402480A0350
1001
ACAD
1000
AcDbSavedByObjectVersion
1070
     0
  0
XRECORD
  5
142
102
{ACAD_REACTORS
330
139
102
}
330
139
100
AcDbXrecord
 90
        0
  0
XRECORD
  5
158
102
{ACAD_REACTORS
330
139
102
}
330
139
100
AcDbXrecord
1000
DSTYLE
1002
{
1070
   340
340
11
1002
}
  0
XRECORD
  5
143
102
{ACAD_REACTORS
330
139
102
}
330
139
100
AcDbXrecord
  1
{55740217-BAEF-E37A-8972-35CE7B9B26BD}
  0
XRECORD
  5
13C
102
{ACAD_REACTORS
330
139
102
}
330
139
100
AcDbXrecord
  1

  0
XRECORD
  5
141
102
{ACAD_REACTORS
330
139
102
}
330
139
100
AcDbXrecord
 90
        1
  0
XRECORD
  5
13E
102
{ACAD_REACTORS
330
139
102
}
330
139
100
AcDbXrecord
340
1A
  0
XRECORD
  5
140
102
{ACAD_REACTORS
330
139
102
}
330
139
100
AcDbXrecord
 90
    10269
  0
XRECORD
  5
13F
102
{ACAD_REACTORS
330
139
102
}
330
139
100
AcDbXrecord
340
19
  0
XRECORD
  5
145
102
{ACAD_REACTORS
330
139
102
}
330
139
100
AcDbXrecord
 40
0.0
  0
XRECORD
  5
148
102
{ACAD_REACTORS
330
139
102
}
330
139
100
AcDbXrecord
340
0
  0
XRECORD
  5
14E
102
{ACAD_REACTORS
330
139
102
}
330
139
100
AcDbXrecord
 10
0.0
 20
0.0
 30
0.0
  0
XRECORD
  5
14A
102
{ACAD_REACTORS
330
139
102
}
330
139
100
AcDbXrecord
 10
0.0
 20
0.0
 30
0.0
  0
XRECORD
  5
14D
102
{ACAD_REACTORS
330
139
102
}
330
139
100
AcDbXrecord
 10
0.0
 20
0.0
 30
0.0
  0
XRECORD
  5
14B
102
{ACAD_REACTORS
330
139
102
}
330
139
100
AcDbXrecord
 10
0.0
 20
0.0
 30
0.0
  0
XRECORD
  5
14C
102
{ACAD_REACTORS
330
139
102
}
330
139
100
AcDbXrecord
 10
0.0
 20
0.0
 30
0.0
  0
XRECORD
  5
149
102
{ACAD_REACTORS
330
139
102
}
330
139
100
AcDbXrecord
 10
0.0
 20
0.0
 30
0.0
  0
XRECORD
  5
146
102
{ACAD_REACTORS
330
139
102
}
330
139
100
AcDbXrecord
340
0
  0
XRECORD
  5
147
102
{ACAD_REACTORS
330
139
102
}
330
139
100
AcDbXrecord
 70
     0
  0
XRECORD
  5
13D
102
{ACAD_REACTORS
330
139
102
}
330
139
100
AcDbXrecord
  1

  0
XRECORD
  5
13A
102
{ACAD_REACTORS
330
139
102
}
330
139
100
AcDbXrecord
 90
        1
  0
XRECORD
  5
13B
102
{ACAD_REACTORS
330
139
102
}
330
139
100
AcDbXrecord
 90
       70
  0
XRECORD
  5
151
102
{ACAD_REACTORS
330
139
102
}
330
139
100
AcDbXrecord
340
0
  0
XRECORD
  5
157
102
{ACAD_REACTORS
330
139
102
}
330
139
100
AcDbXrecord
 10
0.0
 20
0.0
 30
0.0
  0
XRECORD
  5
153
102
{ACAD_REACTORS
330
139
102
}
330
139
100
AcDbXrecord
 10
0.0
 20
0.0
 30
0.0
  0
XRECORD
  5
156
102
{ACAD_REACTORS
330
139
102
}
330
139
100
AcDbXrecord
 10
0.0
 20
0.0
 30
0.0
  0
XRECORD
  5
154
102
{ACAD_REACTORS
330
139
102
}
330
139
100
AcDbXrecord
 10
0.0
 20
0.0
 30
0.0
  0
XRECORD
  5
155
102
{ACAD_REACTORS
330
139
102
}
330
139
100
AcDbXrecord
 10
0.0
 20
0.0
 30
0.0
  0
XRECORD
  5
152
102
{ACAD_REACTORS
330
139
102
}
330
139
100
AcDbXrecord
 10
0.0
 20
0.0
 30
0.0
  0
XRECORD
  5
14F
102
{ACAD_REACTORS
330
139
102
}
330
139
100
AcDbXrecord
340
0
  0
XRECORD
  5
150
102
{ACAD_REACTORS
330
139
102
}
330
139
100
AcDbXrecord
 70
     0
  0
XRECORD
  5
144
102
{ACAD_REACTORS
330
139
102
}
330
139
100
AcDbXrecord
  1
{FAEB1C32-E019-11D5-929B-00C0DF256EC4}
  0
DICTIONARYVAR
  5
15C
102
{ACAD_REACTORS
330
159
102
}
330
159
100
DictionaryVariables
280
     0
  1
2
  0
DICTIONARYVAR
  5
15D
102
{ACAD_REACTORS
330
159
102
}
330
159
100
DictionaryVariables
280
     0
  1
1
  0
DICTIONARY
  5
160
330
3D
100
AcDbDictionary
280
     1
  3
ACAD_XREC_ROUNDTRIP
360
161
  0
DICTIONARY
  5
15E
330
3C
100
AcDbDictionary
280
     1
  3
ACAD_XREC_ROUNDTRIP
360
15F
  0
DICTIONARY
  5
162
330
3E
100
AcDbDictionary
280
     1
  3
ACAD_XREC_ROUNDTRIP
360
163
  0
XRECORD
  5
161
102
{ACAD_REACTORS
330
160
102
}
330
160
100
AcDbXrecord
102
MATERIAL
148
0.0
149
0.0
149
0.0
 93
        0
 94
      127
282
     0
 72
     1
 77
     1
171
     1
175
     1
179
     1
273
     0
  0
XRECORD
  5
15F
102
{ACAD_REACTORS
330
15E
102
}
330
15E
100
AcDbXrecord
102
MATERIAL
148
0.0
149
0.0
149
0.0
 93
        0
 94
      127
282
     0
 72
     1
 77
     1
171
     1
175
     1
179
     1
273
     0
  0
XRECORD
  5
163
102
{ACAD_REACTORS
330
162
102
}
330
162
100
AcDbXrecord
102
MATERIAL
148
0.0
149
0.0
149
0.0
 93
        0
 94
      127
282
     0
 72
     1
 77
     1
171
     1
175
     1
179
     1
273
     0
  0
ENDSEC
  0
EOF
